<?xml version="1.0" standalone="no"?>
<!DOCTYPE svg PUBLIC "-//W3C//DTD SVG 20010904//EN"
 "http://www.w3.org/TR/2001/REC-SVG-20010904/DTD/svg10.dtd">
<svg version="1.0" xmlns="http://www.w3.org/2000/svg"
 width="640.000000pt" height="640.000000pt" viewBox="0 0 640.000000 640.000000"
 preserveAspectRatio="xMidYMid meet">
<metadata>
Created by potrace 1.14, written by Peter Selinger 2001-2017
</metadata>
<g transform="translate(0.000000,640.000000) scale(0.100000,-0.100000)"
fill="#000000" stroke="none">
<path d="M495 6383 c2 -7 0 -13 -5 -13 -6 0 -10 5 -10 10 0 6 -10 10 -22 10
-24 -1 -58 -21 -58 -35 0 -4 7 -2 15 5 13 11 20 11 40 0 14 -7 25 -18 25 -23
0 -5 -7 -4 -15 3 -12 10 -19 8 -40 -8 -21 -17 -23 -21 -10 -32 8 -7 22 -9 31
-6 27 10 94 -15 94 -35 0 -9 -6 -20 -12 -22 -9 -4 -8 -6 2 -6 8 0 21 3 29 8
18 12 41 3 41 -15 0 -9 -11 -14 -30 -14 -26 0 -30 -4 -30 -26 0 -21 4 -24 20
-19 14 4 20 2 20 -8 0 -13 28 -27 57 -27 8 0 11 37 10 134 l-1 134 -78 -1
c-58 -2 -77 -5 -73 -14z m92 -39 c-3 -3 -12 -4 -19 -1 -8 3 -5 6 6 6 11 1 17
-2 13 -5z m-137 -24 c0 -5 -2 -10 -4 -10 -3 0 -8 5 -11 10 -3 6 -1 10 4 10 6
0 11 -4 11 -10z m70 0 c0 -5 -2 -10 -4 -10 -3 0 -8 5 -11 10 -3 6 -1 10 4 10
6 0 11 -4 11 -10z m120 -149 c0 -5 -7 -11 -15 -15 -9 -3 -15 0 -15 9 0 8 7 15
15 15 8 0 15 -4 15 -9z"/>
<path d="M683 6385 c-3 -9 -1 -21 5 -27 6 -6 7 -21 2 -38 -4 -15 -4 -34 1 -41
5 -8 6 -21 4 -30 -3 -9 1 -29 10 -45 17 -34 19 -48 5 -39 -5 3 -10 -3 -10 -14
0 -11 5 -23 10 -26 7 -4 9 -28 6 -61 -3 -29 0 -68 6 -85 7 -21 7 -34 0 -41 -6
-6 -7 -21 -2 -37 4 -15 6 -87 4 -160 l-4 -133 40 -36 c23 -20 38 -42 35 -49
-2 -8 0 -11 5 -8 6 4 28 -9 49 -27 22 -18 63 -45 93 -60 58 -29 144 -68 151
-68 10 0 106 -68 101 -72 -2 -3 2 -5 9 -5 20 0 97 -54 91 -64 -3 -5 -15 0 -26
11 -23 21 -45 25 -67 11 -10 -6 -5 -12 18 -22 17 -8 31 -20 31 -26 0 -7 5 -13
11 -13 6 0 8 -8 5 -18 -8 -24 25 -62 52 -62 11 0 24 -5 28 -12 4 -7 3 -8 -5
-4 -6 4 -33 0 -60 -9 -26 -8 -55 -13 -64 -9 -10 3 -17 1 -17 -6 0 -7 -8 -9
-19 -5 -27 8 -72 -11 -65 -29 3 -8 13 -12 25 -9 13 4 19 0 19 -11 0 -22 -29
-33 -42 -15 -7 10 -8 8 -3 -8 6 -20 3 -21 -29 -16 -28 4 -36 2 -36 -9 0 -21
11 -29 24 -19 19 15 106 20 119 6 30 -29 101 -47 119 -29 10 9 -3 42 -19 48
-7 3 -11 2 -8 -3 3 -5 1 -12 -5 -16 -9 -6 -14 7 -11 28 0 4 -12 7 -28 7 -42 0
-61 9 -61 30 0 26 17 34 29 13 8 -15 13 -16 29 -6 11 6 36 9 59 6 22 -3 50 0
62 6 14 8 21 8 21 1 0 -5 5 -10 10 -10 15 0 12 33 -5 56 -8 12 -12 24 -8 27 3
4 0 14 -8 24 -9 11 -10 14 -1 9 7 -4 12 -2 13 6 3 29 4 33 14 36 12 4 23 -45
20 -90 -2 -18 0 -37 3 -43 4 -5 7 -46 8 -90 2 -74 10 -323 18 -490 2 -40 10
-84 19 -102 22 -42 21 -51 -2 -22 -28 37 -35 71 -44 243 -3 59 -10 92 -19 97
-11 7 -10 11 2 19 12 7 12 12 2 22 -9 9 -15 9 -24 0 -7 -7 -21 -12 -33 -12
-16 0 -17 2 -5 9 8 6 18 7 23 4 5 -3 6 4 2 16 -5 16 -3 20 9 15 37 -14 44 80
8 115 -14 14 -15 13 -10 -12 4 -22 2 -27 -14 -27 -17 0 -19 5 -14 28 5 26 5
26 -6 4 -6 -13 -17 -21 -24 -18 -8 3 -16 1 -20 -5 -3 -5 -13 -9 -22 -7 -10 1
-23 -1 -29 -5 -18 -11 -34 1 -31 21 2 11 -4 17 -16 17 -25 0 -34 -25 -9 -26
11 0 7 -4 -11 -9 -21 -7 -32 -5 -44 7 -14 14 -16 13 -23 -5 -9 -24 -26 -36
-33 -23 -4 5 -21 5 -43 1 -21 -5 -39 -7 -41 -5 -5 5 -32 -21 -32 -29 0 -3 5
-6 11 -6 6 0 17 -7 25 -15 9 -8 22 -15 31 -15 13 0 13 3 3 15 -11 13 -6 15 40
15 42 0 51 -3 47 -15 -4 -8 -2 -17 4 -20 5 -4 7 -11 4 -16 -11 -17 18 -9 31 9
12 16 13 16 14 0 0 -9 -4 -20 -10 -23 -5 -3 -10 -12 -10 -20 0 -18 40 -31 50
-15 5 9 9 9 14 1 4 -6 2 -11 -3 -11 -6 0 -11 -7 -11 -15 0 -11 7 -14 25 -9 17
4 27 2 30 -8 8 -21 42 -19 48 3 3 10 13 19 22 19 9 0 13 -4 10 -10 -3 -6 4
-10 17 -10 13 0 29 -9 36 -20 7 -12 8 -20 2 -20 -5 0 -10 -4 -10 -10 0 -5 7
-10 15 -10 9 0 12 -6 8 -17 -4 -11 -8 -12 -11 -5 -6 18 -22 15 -22 -4 0 -9 -9
-18 -20 -21 -11 -3 -20 -12 -20 -19 0 -19 -16 -18 -24 1 -4 11 -11 13 -30 6
-13 -6 -26 -8 -28 -6 -2 2 -23 -2 -46 -8 l-43 -13 37 -38 c20 -20 33 -40 30
-44 -4 -3 -10 -2 -14 3 -4 6 -15 11 -24 13 -22 4 -24 -26 -3 -34 8 -4 15 -12
15 -20 0 -16 26 -19 35 -4 4 6 12 6 23 1 9 -5 25 -12 35 -15 9 -3 17 -10 17
-17 0 -6 -7 -8 -16 -5 -9 3 -12 2 -9 -5 4 -6 14 -8 22 -5 21 8 39 -4 22 -15
-8 -4 -32 -5 -55 -2 -36 5 -42 3 -47 -15 -7 -29 28 -40 53 -17 18 16 23 16 52
3 18 -8 44 -20 58 -26 24 -10 24 -11 3 -11 -13 -1 -23 -7 -23 -15 0 -20 19
-31 32 -18 7 7 19 4 39 -10 28 -21 29 -21 64 -2 36 19 37 19 50 0 9 -12 27
-20 50 -20 37 -1 44 -12 23 -36 -11 -12 -10 -12 3 -2 14 10 18 9 23 -4 8 -22
3 -27 -29 -27 -14 1 -25 -4 -25 -9 0 -6 9 -8 20 -5 11 3 20 0 20 -6 0 -7 5 -5
10 3 9 13 11 13 20 0 17 -26 11 -39 -17 -38 -51 1 -63 -2 -63 -16 0 -18 15
-22 65 -22 36 1 54 -8 55 -25 0 -3 -11 -4 -25 -1 -13 2 -32 1 -41 -2 -16 -6
-15 -8 2 -20 10 -8 22 -12 26 -10 5 3 8 -2 8 -12 0 -12 -3 -14 -13 -6 -7 6
-23 9 -34 6 -28 -8 -39 -34 -15 -34 10 0 23 -5 29 -11 8 -8 13 -8 17 0 4 6 20
11 37 11 16 0 29 5 29 13 0 6 6 1 13 -13 22 -42 27 -60 17 -60 -6 0 -10 9 -10
20 0 12 -7 20 -16 20 -11 0 -14 -5 -10 -17 6 -16 6 -16 -12 0 -21 19 -38 11
-21 -10 12 -14 5 -17 -38 -13 -23 1 -31 -14 -13 -25 17 -11 11 -33 -11 -40
-13 -5 -25 -2 -30 6 -6 11 -9 10 -14 -3 -4 -10 -14 -14 -27 -10 -13 3 -19 1
-15 -5 4 -6 28 -14 54 -18 72 -10 93 -16 93 -27 0 -6 -15 -8 -37 -4 -21 4 -53
10 -72 13 -49 8 -31 -11 24 -27 55 -15 50 -32 -8 -25 -23 3 -36 2 -29 -1 19
-9 14 -24 -9 -24 -39 0 -8 -19 42 -26 27 -4 52 -11 55 -15 3 -5 13 -9 22 -9 9
0 43 -14 74 -30 42 -22 65 -29 84 -24 26 7 26 7 9 -19 -9 -14 -30 -29 -48 -33
-18 -3 -41 -13 -52 -20 -11 -8 -30 -14 -42 -14 -16 0 -23 -6 -23 -20 0 -18 4
-20 43 -14 33 5 40 4 30 -6 -6 -7 -49 -17 -95 -21 -134 -14 -278 -35 -285 -42
-15 -15 156 -4 297 19 19 3 86 7 149 9 63 3 119 9 125 15 7 7 7 10 -1 10 -6 0
-13 10 -16 22 -5 16 -9 19 -19 11 -12 -10 -54 -20 -102 -26 -10 -1 -21 4 -24
12 -3 11 2 12 23 7 17 -4 24 -3 20 4 -3 6 3 10 15 10 25 0 80 27 80 39 0 5 8
8 17 7 12 0 19 7 21 22 2 12 8 22 13 22 16 0 10 25 -10 39 -11 8 -17 20 -14
27 2 7 -5 15 -17 19 l-22 7 21 19 c23 21 27 39 10 39 -6 0 -7 5 -2 13 11 17 4
58 -13 75 -8 8 -12 22 -9 33 4 11 2 19 -4 19 -6 0 -11 7 -11 15 0 8 -4 15 -9
15 -5 0 -8 11 -8 25 0 14 4 25 9 25 6 0 8 6 5 14 -3 8 3 22 13 31 11 10 17 22
14 27 -3 5 0 15 6 23 10 12 9 15 -4 15 -21 0 -20 16 1 29 10 5 15 13 11 17 -5
4 -3 14 4 21 9 11 9 16 -2 23 -7 4 -10 15 -7 24 4 9 2 16 -3 16 -18 0 -22 41
-6 59 9 10 13 21 9 25 -4 4 0 12 9 17 12 7 16 19 13 40 -2 20 1 32 11 36 8 3
12 13 9 22 -5 18 46 81 66 81 8 0 8 4 -1 15 -10 13 -7 17 21 29 28 12 31 16
17 21 -23 9 -23 20 3 44 14 12 17 21 9 26 -6 4 -22 25 -37 48 -20 32 -23 44
-15 58 8 13 8 20 -3 29 -23 19 -18 31 10 24 15 -4 25 -2 25 5 0 6 -7 11 -15
11 -19 0 -36 32 -26 49 13 20 -5 80 -29 103 -20 19 -20 20 -3 34 10 7 13 14 7
14 -15 0 -13 28 2 34 15 6 48 66 37 66 -4 0 3 7 15 16 15 10 20 20 14 27 -19
24 -31 76 -20 83 6 4 8 25 5 54 -5 41 -3 50 21 72 44 41 72 79 72 96 0 22 10
34 40 50 24 13 60 70 60 96 0 7 16 26 35 43 19 17 31 34 27 38 -4 5 -2 5 5 2
16 -10 74 52 102 109 14 26 26 43 29 36 2 -7 8 -9 13 -6 6 3 16 0 24 -6 9 -8
25 -9 42 -5 46 13 53 14 59 4 3 -6 16 -3 31 6 14 10 23 13 19 7 -10 -17 5 -42
26 -42 14 0 18 -5 14 -15 -8 -21 0 -19 25 6 24 24 35 20 21 -8 -8 -13 -5 -24
8 -41 19 -24 40 -29 40 -11 0 8 5 8 15 -1 8 -7 15 -18 15 -24 0 -17 40 -52 70
-61 34 -11 47 -27 44 -53 -4 -24 6 -28 23 -11 7 7 13 7 17 1 4 -7 16 -6 34 4
35 18 37 18 50 -8 10 -22 11 -22 12 -3 1 18 4 16 25 -10 14 -16 25 -24 25 -17
0 15 32 16 48 0 14 -14 15 -8 3 25 -8 20 -6 27 6 31 11 4 14 2 10 -9 -4 -8 -2
-17 4 -20 5 -4 7 -10 4 -15 -3 -5 -1 -11 5 -15 9 -6 14 6 11 30 0 6 8 11 19
11 14 0 19 -5 15 -15 -4 -11 -2 -11 8 -2 8 6 36 12 63 13 27 1 54 5 59 9 7 5
11 -2 10 -19 0 -25 4 -27 44 -30 30 -2 49 2 62 14 14 13 22 15 31 6 8 -8 14
-7 25 3 15 16 42 10 61 -13 6 -9 12 -11 12 -5 0 12 50 24 64 16 4 -3 2 -10 -5
-15 -10 -7 -4 -7 16 -3 16 4 35 11 41 16 20 16 4 47 -29 59 -18 6 -39 16 -47
21 -56 33 -94 50 -106 45 -9 -3 -12 -1 -9 4 3 5 -7 15 -22 21 -15 6 -53 22
-83 36 -30 14 -56 25 -58 24 -1 -1 -15 5 -30 13 -15 8 -63 31 -107 51 -44 20
-92 43 -107 51 -14 8 -33 14 -42 14 -9 0 -16 4 -16 9 0 12 -64 49 -92 54 -30
5 -52 14 -113 43 -28 13 -58 24 -68 24 -9 0 -17 4 -17 9 0 5 -16 15 -35 21
-19 6 -35 16 -35 21 0 5 -8 9 -19 9 -10 0 -24 6 -30 14 -7 8 -24 17 -39 21
-15 4 -32 11 -38 16 -20 16 -108 59 -122 59 -7 0 -39 12 -70 26 -59 27 -78 35
-172 74 -30 13 -92 40 -137 61 -46 22 -86 39 -90 39 -4 0 -42 17 -83 38 l-75
37 -568 3 c-511 2 -568 1 -574 -13z m2487 -745 c0 -5 -4 -10 -10 -10 -5 0 -10
5 -10 10 0 6 5 10 10 10 6 0 10 -4 10 -10z m80 -20 c0 -5 -4 -10 -9 -10 -6 0
-13 5 -16 10 -3 6 1 10 9 10 9 0 16 -4 16 -10z m-192 -12 c-2 -6 -10 -14 -16
-16 -7 -2 -10 2 -6 12 7 18 28 22 22 4z m-1043 -326 c-3 -3 -11 0 -18 7 -9 10
-8 11 6 5 10 -3 15 -9 12 -12z m-658 -108 c-3 -3 -12 -4 -19 -1 -8 3 -5 6 6 6
11 1 17 -2 13 -5z m-17 -48 c0 -3 -4 -8 -10 -11 -5 -3 -10 -1 -10 4 0 6 5 11
10 11 6 0 10 -2 10 -4z m-183 -351 c-14 -30 -23 -32 -30 -6 -3 15 1 21 17 24
11 2 22 5 23 6 0 0 -4 -10 -10 -24z m53 -6 c0 -4 -5 -9 -10 -11 -7 -2 -6 -10
3 -22 13 -17 15 -17 36 15 13 19 20 26 17 16 -3 -10 -6 -25 -6 -32 0 -8 -10
-17 -22 -20 -16 -6 -26 -1 -39 16 -24 31 -24 48 1 46 11 -1 20 -4 20 -8z m130
1 c0 -5 -4 -10 -10 -10 -5 0 -10 5 -10 10 0 6 5 10 10 10 6 0 10 -4 10 -10z
m-40 -27 c15 -17 12 -84 -3 -100 -15 -14 -36 20 -32 51 2 17 4 39 4 49 1 9 4
17 9 17 4 0 14 -8 22 -17z m50 -393 c0 -5 -4 -10 -10 -10 -5 0 -10 5 -10 10 0
6 5 10 10 10 6 0 10 -4 10 -10z m230 -70 c0 -11 -2 -20 -4 -20 -2 0 -6 9 -9
20 -3 11 -1 20 4 20 5 0 9 -9 9 -20z m20 -40 c0 -5 -2 -10 -4 -10 -3 0 -8 5
-11 10 -3 6 -1 10 4 10 6 0 11 -4 11 -10z m97 -312 c-3 -8 -6 -5 -6 6 -1 11 2
17 5 13 3 -3 4 -12 1 -19z m86 -120 c3 -9 -7 -13 -34 -13 -45 0 -52 12 -11 18
15 2 30 5 33 6 4 0 9 -5 12 -11z m-93 -8 c0 -5 -7 -10 -15 -10 -8 0 -15 5 -15
10 0 6 7 10 15 10 8 0 15 -4 15 -10z m74 -33 c3 4 6 1 6 -5 0 -13 -31 -15 -69
-5 -23 6 -23 7 -5 13 10 4 29 4 40 -1 12 -4 25 -5 28 -2z m43 -23 c-9 -9 -28
6 -21 18 4 6 10 6 17 -1 6 -6 8 -13 4 -17z m-24 -49 c-3 -9 -8 -14 -10 -11 -3
3 -2 9 2 15 9 16 15 13 8 -4z m-86 -21 c-3 -3 -12 -4 -19 -1 -8 3 -5 6 6 6 11
1 17 -2 13 -5z m-62 -24 c3 -5 -3 -10 -15 -10 -12 0 -18 5 -15 10 3 6 10 10
15 10 5 0 12 -4 15 -10z m182 -25 c32 -2 63 -20 63 -36 0 -18 -21 -8 -30 14
-6 15 -9 17 -9 5 -1 -13 -9 -15 -43 -11 -24 3 -61 14 -83 25 l-40 19 55 -7
c30 -4 69 -8 87 -9z"/>
<path d="M5966 6386 c4 -10 13 -15 21 -12 11 4 11 1 2 -15 -6 -11 -8 -23 -5
-26 3 -4 1 -12 -4 -18 -11 -14 -3 -45 11 -45 5 0 9 -5 9 -11 0 -7 -9 -9 -21
-6 -15 4 -33 -7 -69 -44 -26 -27 -51 -49 -54 -49 -16 0 -3 31 21 48 16 11 25
23 22 26 -9 9 -69 -25 -95 -54 -12 -14 -26 -22 -30 -17 -4 4 8 20 27 36 19 16
30 33 26 37 -4 5 -11 4 -15 -2 -13 -19 -56 -44 -75 -44 -16 0 -17 3 -7 15 11
13 6 15 -32 15 -25 0 -48 -3 -52 -7 -9 -9 -116 -11 -116 -2 0 14 38 39 52 34
8 -3 30 1 49 9 l34 15 -51 -1 c-47 0 -55 -4 -90 -39 -21 -21 -44 -39 -52 -39
-11 0 -12 3 -3 14 24 28 -7 24 -34 -4 -16 -17 -37 -30 -48 -30 -15 0 -10 9 24
40 37 33 41 39 23 40 -34 0 -80 -28 -110 -68 -16 -20 -35 -42 -44 -49 -8 -7
-10 -13 -4 -13 7 0 1 -20 -12 -47 -32 -63 -46 -83 -56 -77 -8 5 -12 -24 -9
-58 1 -10 -2 -18 -8 -18 -6 0 -8 7 -5 15 5 11 2 13 -12 8 -12 -4 -15 -3 -10 5
4 7 3 19 -2 28 -6 10 -5 27 1 44 6 15 7 36 3 46 -6 16 -9 14 -20 -16 -8 -19
-17 -44 -21 -54 -6 -14 -5 -17 3 -12 11 7 16 -21 14 -89 -1 -17 0 -17 4 -2 7
22 24 12 24 -15 0 -14 5 -18 15 -14 18 7 19 2 3 -25 -10 -17 -10 -23 0 -26 19
-7 14 -23 -8 -23 -16 0 -20 -7 -20 -30 0 -17 -5 -39 -12 -49 -9 -15 -7 -26 10
-55 26 -43 26 -46 9 -46 -7 0 -18 10 -25 21 -10 16 -16 19 -25 10 -9 -9 -8
-14 3 -21 10 -7 5 -8 -17 -4 -21 4 -33 3 -33 -4 0 -7 8 -9 18 -5 15 6 15 5 3
-10 -10 -13 -17 -15 -27 -6 -10 8 -14 8 -14 0 0 -6 5 -11 10 -11 6 0 10 -9 10
-20 0 -15 6 -19 23 -17 17 1 22 -3 21 -20 -1 -13 4 -23 12 -23 8 0 14 -4 14
-9 0 -6 -25 -1 -56 9 -45 16 -54 17 -44 5 7 -8 21 -15 32 -15 15 0 18 -5 13
-20 -6 -20 9 -28 20 -10 3 6 10 10 16 10 12 0 12 -37 -1 -45 -6 -4 -4 -12 6
-22 11 -12 18 -13 27 -4 8 8 7 11 -6 11 -9 0 -17 5 -17 10 0 14 20 12 52 -4
16 -9 30 -11 33 -5 4 5 1 9 -5 9 -8 0 -8 6 0 20 13 25 29 25 46 3 7 -10 14
-13 14 -6 0 9 8 8 28 -3 15 -7 31 -14 35 -14 5 0 20 -9 34 -20 14 -11 34 -20
44 -20 26 0 24 -12 -6 -34 -14 -10 -25 -24 -25 -31 0 -7 -7 -18 -15 -25 -8 -7
-15 -21 -15 -31 0 -11 -5 -19 -10 -19 -6 0 -3 -11 7 -24 10 -13 24 -21 32 -18
9 3 12 1 7 -6 -4 -7 6 -10 33 -7 29 3 44 -1 57 -16 9 -10 14 -22 11 -26 -4 -3
-7 -1 -7 5 0 6 -7 9 -15 6 -11 -5 -14 -2 -9 12 7 18 6 18 -12 1 -16 -14 -17
-21 -6 -37 7 -11 8 -20 3 -20 -5 0 -12 6 -14 13 -4 8 -16 0 -35 -21 -25 -27
-32 -30 -44 -19 -7 7 -22 17 -33 22 -18 7 -19 8 -2 12 10 3 24 0 31 -6 8 -6
21 -8 30 -5 15 6 15 8 1 31 -18 27 -12 44 7 25 16 -16 25 -15 32 4 4 11 1 14
-12 10 -9 -3 -29 1 -44 9 -16 7 -28 10 -28 4 0 -5 5 -9 10 -9 6 0 10 -7 10
-16 0 -13 -3 -14 -14 -5 -7 6 -21 9 -30 5 -10 -4 -16 -1 -16 7 0 11 -2 11 -10
-1 -6 -9 -5 -19 3 -29 9 -11 9 -15 -1 -18 -6 -3 -10 -9 -6 -14 9 -16 -9 -10
-26 9 -16 16 -15 20 8 61 16 28 20 47 14 53 -7 7 -12 -1 -17 -21 -8 -36 -12
-37 -37 -14 -10 9 -18 11 -18 5 0 -6 8 -16 18 -21 16 -10 16 -12 -2 -26 -25
-19 -40 -19 -33 -1 4 9 0 12 -13 9 -10 -3 -27 0 -37 6 -15 7 -26 6 -42 -6 -31
-21 -76 -3 -66 27 4 11 2 20 -4 20 -6 0 -11 -5 -11 -11 0 -6 -7 -9 -15 -5 -18
7 -20 -5 -3 -22 9 -9 9 -12 1 -12 -7 0 -15 5 -18 10 -10 17 -32 -6 -39 -40 -3
-17 -12 -30 -21 -30 -11 0 -13 5 -5 25 13 35 -3 32 -33 -6 -20 -26 -28 -30
-43 -21 -18 10 -18 11 -1 17 26 11 21 24 -15 40 -28 11 -30 15 -15 20 11 5 25
1 37 -10 11 -10 20 -13 20 -7 0 7 -9 17 -20 24 -11 7 -20 21 -20 30 0 10 -4
18 -10 18 -5 0 -10 -9 -10 -20 0 -11 -4 -20 -10 -20 -5 0 -12 -11 -16 -25 -5
-20 -9 -23 -20 -14 -8 6 -11 15 -9 20 3 4 -8 3 -25 -3 -17 -5 -34 -8 -37 -4
-4 3 -1 6 5 6 16 0 15 27 -1 33 -8 3 -20 2 -27 -3 -10 -6 -9 -9 1 -13 12 -5
12 -7 0 -15 -18 -13 4 -24 164 -87 160 -62 214 -84 253 -103 29 -13 35 -13 44
-1 8 11 9 11 5 -2 -4 -13 12 -24 66 -49 40 -18 96 -43 125 -56 29 -13 55 -24
58 -24 3 0 29 -11 57 -24 51 -25 139 -62 247 -106 30 -12 84 -36 120 -53 36
-17 74 -34 85 -38 11 -4 52 -22 92 -38 39 -17 78 -31 85 -31 8 0 36 -11 64
-24 85 -42 164 -76 175 -76 5 0 29 -9 51 -20 23 -11 43 -20 45 -20 2 0 3 65 3
145 0 141 -1 146 -22 156 -22 9 -23 9 -1 5 21 -4 21 -3 21 158 0 109 -4 163
-12 168 -8 6 -8 8 1 8 10 0 13 136 13 626 0 600 -1 627 -19 650 -20 25 -37 19
-20 -6 15 -25 10 -40 -15 -40 -23 0 -24 4 -23 45 1 25 6 45 10 45 5 0 5 5 1
11 -10 17 -27 -17 -19 -40 4 -15 -1 -20 -27 -25 -32 -6 -52 7 -44 31 6 14 -21
26 -30 12 -3 -6 -16 -3 -32 8 -20 12 -53 18 -125 21 -88 4 -97 3 -91 -12z
m344 -86 c0 -5 -4 -10 -10 -10 -5 0 -10 5 -10 10 0 6 5 10 10 10 6 0 10 -4 10
-10z m40 -40 c0 -5 -9 -10 -20 -10 -11 0 -20 5 -20 10 0 6 9 10 20 10 11 0 20
-4 20 -10z m-404 -78 c-8 -9 -19 -13 -22 -9 -10 9 16 38 28 31 6 -4 4 -13 -6
-22z m-586 -6 c0 -2 -8 -10 -17 -17 -16 -13 -17 -12 -4 4 13 16 21 21 21 13z
m660 -10 c0 -3 -4 -8 -10 -11 -5 -3 -10 -1 -10 4 0 6 5 11 10 11 6 0 10 -2 10
-4z m-185 -97 c-3 -4 4 -5 15 -2 11 3 20 1 20 -4 0 -15 -50 -87 -66 -96 -8 -4
-14 -15 -14 -22 0 -8 -4 -15 -8 -15 -4 0 -6 -16 -4 -35 3 -21 10 -35 18 -35 7
0 27 -8 44 -19 27 -16 29 -20 17 -33 -8 -8 -22 -28 -31 -46 -9 -18 -21 -32
-26 -32 -6 0 -10 -7 -10 -15 0 -8 -7 -15 -15 -15 -8 0 -15 -7 -15 -15 0 -9 -8
-19 -17 -22 -10 -4 -27 -15 -37 -25 -11 -10 -26 -18 -34 -18 -12 0 -12 -3 -2
-15 11 -13 9 -15 -13 -15 -20 0 -24 -4 -20 -20 4 -17 0 -20 -25 -20 -34 0 -50
-15 -26 -24 14 -5 14 -7 0 -22 -15 -14 -18 -14 -35 8 -11 12 -23 20 -27 15 -4
-4 -2 -13 4 -19 16 -16 15 -31 0 -26 -7 3 -19 -2 -27 -10 -13 -12 -16 -12 -28
4 -11 16 -15 16 -22 5 -5 -8 -16 -11 -24 -8 -8 3 -19 1 -25 -5 -8 -8 -16 -8
-27 2 -10 8 -19 9 -27 3 -17 -13 -78 3 -78 20 0 7 -10 17 -22 22 -11 6 -28 21
-37 35 -18 27 -6 23 36 -14 30 -26 59 -30 67 -10 3 9 12 14 19 11 7 -3 20 1
30 7 15 12 15 15 -2 47 -15 28 -16 38 -7 51 13 18 19 12 53 -52 7 -14 13 -19
13 -13 0 15 61 6 72 -10 4 -7 12 -6 22 2 9 8 16 10 16 5 0 -4 5 -3 12 4 7 7
19 12 28 12 8 0 26 7 38 15 21 15 21 17 5 41 -9 15 -26 30 -37 35 -20 9 -20 9
-1 5 11 -2 29 -7 40 -11 14 -5 11 1 -10 18 -20 17 -37 24 -52 20 -17 -4 -25 1
-33 18 -19 47 -60 80 -60 49 0 -5 -7 -10 -15 -10 -16 0 -16 25 0 50 5 8 9 24
8 35 -2 11 0 15 3 8 3 -7 12 -9 20 -6 8 3 14 1 14 -5 0 -6 9 -8 20 -5 11 3 20
14 20 24 0 10 5 21 10 24 6 3 10 -1 10 -9 0 -10 9 -16 22 -16 20 0 20 1 5 18
-21 23 -21 32 -2 32 8 0 15 -4 15 -10 0 -5 5 -10 11 -10 6 0 8 9 4 20 -4 11
-2 20 4 20 6 0 11 6 11 14 0 8 7 16 15 20 8 3 14 9 13 13 -5 21 15 53 34 53
16 0 18 3 9 14 -15 17 0 29 25 19 11 -4 15 -3 10 5 -10 17 13 25 31 10 14 -11
15 -10 9 9 l-7 23 40 -22 c22 -12 38 -25 36 -29z m-145 31 c0 -5 -2 -10 -4
-10 -3 0 -8 5 -11 10 -3 6 -1 10 4 10 6 0 11 -4 11 -10z m-248 -202 c-7 -7
-12 -8 -12 -2 0 14 12 26 19 19 2 -3 -1 -11 -7 -17z m413 -8 c3 -5 1 -10 -4
-10 -6 0 -11 5 -11 10 0 6 2 10 4 10 3 0 8 -4 11 -10z m-425 -50 c0 -5 -7 -10
-15 -10 -8 0 -15 -4 -15 -10 0 -5 -5 -10 -12 -10 -6 0 -3 9 7 20 20 22 35 26
35 10z m68 -120 c14 -30 10 -50 -10 -50 -5 0 -8 7 -5 15 4 8 2 17 -3 20 -12 7
-13 45 -2 45 4 0 13 -13 20 -30z m-28 -25 c0 -8 -6 -12 -14 -9 -8 3 -12 12 -9
20 6 17 23 9 23 -11z m-42 -46 c2 -23 2 -23 -13 -5 -18 24 -20 39 -2 34 6 -3
13 -15 15 -29z m-114 -48 c3 -5 -1 -11 -9 -14 -9 -4 -12 -1 -8 9 6 16 10 17
17 5z m-125 -122 c12 19 24 -4 15 -31 -6 -20 -8 -20 -19 -5 -8 11 -20 15 -31
11 -16 -5 -16 -4 -4 5 8 6 11 11 7 11 -5 0 -5 5 -1 11 4 8 9 7 15 -2 8 -12 10
-12 18 0z m198 -59 c14 -11 23 -20 20 -20 -14 0 -57 24 -57 32 0 13 10 10 37
-12z m33 -125 c14 -16 10 -18 -14 -9 -9 3 -16 10 -16 15 0 14 16 11 30 -6z
m-30 -65 c0 -5 -4 -10 -9 -10 -6 0 -13 5 -16 10 -3 6 1 10 9 10 9 0 16 -4 16
-10z m-426 -102 c-6 -22 -6 -22 19 -5 30 20 37 21 37 7 0 -5 -7 -10 -15 -10
-18 0 -20 -16 -2 -23 8 -4 7 -6 -4 -6 -25 -2 -51 23 -43 42 9 25 17 21 8 -5z
m200 0 c12 -12 13 -18 3 -22 -8 -3 -6 -9 7 -20 29 -24 12 -31 -24 -10 -27 16
-32 17 -40 4 -8 -13 -12 -12 -27 4 -17 17 -17 18 5 11 12 -3 22 -2 22 3 0 6 9
8 20 5 11 -3 20 -1 20 5 0 12 -29 26 -50 23 -12 -1 -12 0 -2 7 19 13 47 8 66
-10z m1026 3 c0 -5 -6 -11 -13 -14 -8 -3 -14 1 -14 9 0 8 6 14 14 14 7 0 13
-4 13 -9z m-680 -33 c0 -9 -3 -9 -12 0 -8 8 -15 9 -25 1 -14 -13 -16 -9 -7 15
5 12 10 13 25 5 10 -5 19 -15 19 -21z m-260 -9 c0 -5 -7 -9 -15 -9 -15 0 -20
12 -9 23 8 8 24 -1 24 -14z m1040 -9 c0 -5 -4 -10 -10 -10 -5 0 -10 5 -10 10
0 6 5 10 10 10 6 0 10 -4 10 -10z m-1220 -10 c0 -5 -7 -10 -16 -10 -8 0 -12 5
-9 10 3 6 10 10 16 10 5 0 9 -4 9 -10z m170 -10 c13 -8 12 -10 -3 -10 -10 0
-15 -4 -12 -10 3 -5 1 -10 -4 -10 -6 0 -11 9 -11 20 0 22 7 25 30 10z m200 1
c0 -5 -7 -11 -14 -14 -10 -4 -13 -1 -9 9 6 15 23 19 23 5z m885 -1 c-3 -5 -10
-10 -16 -10 -5 0 -9 5 -9 10 0 6 7 10 16 10 8 0 12 -4 9 -10z m-1155 -10 c0
-5 -5 -10 -11 -10 -5 0 -7 5 -4 10 3 6 8 10 11 10 2 0 4 -4 4 -10z m425 -19
c-3 -6 -11 -11 -17 -11 -6 0 -6 6 2 15 14 17 26 13 15 -4z m-305 5 c0 -3 -4
-8 -10 -11 -5 -3 -10 -1 -10 4 0 6 5 11 10 11 6 0 10 -2 10 -4z m62 -20 c4
-17 1 -23 -9 -19 -15 6 -15 6 -7 27 8 22 11 20 16 -8z m-168 -10 c-6 -15 -24
-23 -24 -11 0 8 24 34 28 30 1 -1 0 -10 -4 -19z m378 -18 c-7 -7 -12 -8 -12
-2 0 14 12 26 19 19 2 -3 -1 -11 -7 -17z m48 18 c0 -3 -4 -8 -10 -11 -5 -3
-10 -1 -10 4 0 6 5 11 10 11 6 0 10 -2 10 -4z m-274 -33 c-7 -7 -26 7 -26 19
0 6 6 6 15 -2 9 -7 13 -15 11 -17z m-41 -3 c3 -5 1 -10 -4 -10 -6 0 -11 5 -11
10 0 6 2 10 4 10 3 0 8 -4 11 -10z m405 1 c0 -6 -4 -12 -8 -15 -5 -3 -9 1 -9
9 0 8 4 15 9 15 4 0 8 -4 8 -9z m124 3 c17 -7 22 -34 6 -34 -5 0 -14 9 -20 20
-12 22 -10 23 14 14z m-647 -10 c-3 -3 -12 -4 -19 -1 -8 3 -5 6 6 6 11 1 17
-2 13 -5z m180 -36 c-3 -8 -6 -5 -6 6 -1 11 2 17 5 13 3 -3 4 -12 1 -19z m448
-28 c7 -12 -2 -12 -30 0 -19 8 -19 9 2 9 12 1 25 -3 28 -9z m122 -32 c-3 -8
-6 -5 -6 6 -1 11 2 17 5 13 3 -3 4 -12 1 -19z m78 13 c3 -5 2 -12 -3 -15 -5
-3 -9 1 -9 9 0 17 3 19 12 6z m119 -6 c16 -12 17 -15 4 -15 -9 0 -19 -6 -22
-12 -3 -7 -3 -2 0 11 5 18 3 23 -7 19 -8 -3 -25 -8 -39 -12 -21 -5 -20 -3 5 9
37 18 36 18 59 0z m-159 -15 c3 -5 1 -10 -4 -10 -6 0 -11 5 -11 10 0 6 2 10 4
10 3 0 8 -4 11 -10z m235 -26 c0 -8 -5 -12 -10 -9 -6 4 -8 11 -5 16 9 14 15
11 15 -7z m120 -4 c0 -5 -2 -10 -4 -10 -3 0 -8 5 -11 10 -3 6 -1 10 4 10 6 0
11 -4 11 -10z m-35 -30 c3 -5 1 -10 -4 -10 -6 0 -11 5 -11 10 0 6 2 10 4 10 3
0 8 -4 11 -10z m-105 -40 c0 -5 -2 -10 -4 -10 -3 0 -8 5 -11 10 -3 6 -1 10 4
10 6 0 11 -4 11 -10z m141 -7 c19 -9 28 -18 20 -21 -7 -2 -18 1 -24 7 -6 6
-19 11 -28 11 -10 0 -21 5 -24 10 -9 15 18 12 56 -7z m-317 -23 c-6 -6 -10 -3
-10 10 0 13 4 16 10 10 7 -7 7 -13 0 -20z m246 10 c0 -5 -5 -10 -11 -10 -5 0
-7 5 -4 10 3 6 8 10 11 10 2 0 4 -4 4 -10z"/>
<path d="M5560 5830 c8 -5 20 -10 25 -10 6 0 3 5 -5 10 -8 5 -19 10 -25 10 -5
0 -3 -5 5 -10z"/>
<path d="M5480 5822 c0 -5 7 -13 16 -16 10 -4 14 -1 12 6 -5 15 -28 23 -28 10z"/>
<path d="M5605 5820 c3 -5 11 -10 16 -10 6 0 7 5 4 10 -3 6 -11 10 -16 10 -6
0 -7 -4 -4 -10z"/>
<path d="M5543 5760 c1 -20 8 -25 20 -14 7 8 -3 34 -13 34 -5 0 -8 -9 -7 -20z"/>
<path d="M5605 5741 c-3 -5 -1 -12 5 -16 5 -3 10 1 10 9 0 18 -6 21 -15 7z"/>
<path d="M5540 5550 c0 -5 5 -10 10 -10 6 0 10 5 10 10 0 6 -4 10 -10 10 -5 0
-10 -4 -10 -10z"/>
<path d="M6235 6390 c3 -5 8 -10 11 -10 2 0 4 5 4 10 0 6 -5 10 -11 10 -5 0
-7 -4 -4 -10z"/>
<path d="M5698 6323 c7 -3 16 -2 19 1 4 3 -2 6 -13 5 -11 0 -14 -3 -6 -6z"/>
<path d="M5605 6310 c3 -5 8 -10 11 -10 2 0 4 5 4 10 0 6 -5 10 -11 10 -5 0
-7 -4 -4 -10z"/>
<path d="M5486 6285 c-11 -8 -17 -18 -13 -21 4 -4 13 -1 21 5 8 7 24 10 35 6
28 -9 51 6 25 16 -29 11 -47 10 -68 -6z"/>
<path d="M5356 6264 c-5 -14 -4 -15 9 -4 17 14 19 20 6 20 -5 0 -12 -7 -15
-16z"/>
<path d="M437 6251 c-4 -17 -3 -21 5 -13 5 5 8 16 6 23 -3 8 -7 3 -11 -10z"/>
<path d="M5690 6260 c0 -5 5 -10 10 -10 6 0 10 5 10 10 0 6 -4 10 -10 10 -5 0
-10 -4 -10 -10z"/>
<path d="M463 6223 c-15 -3 -23 -12 -23 -24 0 -25 12 -24 28 1 7 12 18 17 29
13 11 -4 14 -3 9 5 -4 7 -10 11 -14 11 -4 -1 -17 -4 -29 -6z"/>
<path d="M396 6204 c-8 -21 -4 -25 14 -14 11 7 12 12 4 20 -8 8 -13 7 -18 -6z"/>
<path d="M5220 6175 c-7 -9 -11 -17 -8 -20 2 -2 12 4 21 15 9 11 13 20 8 20
-5 0 -14 -7 -21 -15z"/>
<path d="M5190 6100 c0 -5 5 -10 11 -10 5 0 7 5 4 10 -3 6 -8 10 -11 10 -2 0
-4 -4 -4 -10z"/>
<path d="M2668 6058 c5 -5 16 -8 23 -6 8 3 3 7 -10 11 -17 4 -21 3 -13 -5z"/>
<path d="M640 6036 c0 -14 5 -26 10 -26 6 0 10 9 10 19 0 11 -4 23 -10 26 -6
4 -10 -5 -10 -19z"/>
<path d="M2852 5996 c-24 -13 -24 -13 7 -13 18 0 27 4 20 7 -8 6 -7 9 2 13 8
3 10 6 4 6 -5 0 -21 -6 -33 -13z"/>
<path d="M2935 5940 c3 -5 8 -10 11 -10 2 0 4 5 4 10 0 6 -5 10 -11 10 -5 0
-7 -4 -4 -10z"/>
<path d="M3001 5921 c-8 -5 -9 -11 -3 -15 5 -3 12 1 16 9 6 17 6 18 -13 6z"/>
<path d="M3030 5896 c0 -2 9 -6 20 -9 11 -3 18 -1 14 4 -5 9 -34 13 -34 5z"/>
<path d="M3107 5881 c-15 -6 -10 -12 32 -35 28 -15 56 -24 62 -20 6 3 15 0 20
-7 7 -11 9 -10 9 4 0 12 -8 17 -27 17 -31 0 -87 32 -76 43 8 8 4 8 -20 -2z"/>
<path d="M5130 5850 c0 -13 5 -18 15 -14 8 4 15 10 15 14 0 4 -7 10 -15 14
-10 4 -15 -1 -15 -14z"/>
<path d="M3255 5809 c-4 -6 1 -17 11 -24 23 -17 34 -19 34 -4 0 5 -4 7 -10 4
-5 -3 -10 3 -10 14 0 22 -14 28 -25 10z"/>
<path d="M3395 5810 c3 -5 11 -10 16 -10 6 0 7 5 4 10 -3 6 -11 10 -16 10 -6
0 -7 -4 -4 -10z"/>
<path d="M3318 5784 c-5 -4 -8 -10 -8 -14 0 -11 79 -44 87 -36 4 4 -3 9 -15
13 -12 3 -20 9 -17 13 3 5 -4 6 -14 3 -13 -3 -20 1 -23 12 -1 9 -6 13 -10 9z"/>
<path d="M3479 5728 c15 -21 5 -23 -35 -8 -34 13 -45 4 -13 -10 13 -5 31 -14
39 -18 63 -36 70 -38 70 -17 0 8 5 15 12 15 9 0 8 3 -1 13 -11 10 -14 9 -18
-1 -3 -6 -9 -10 -13 -7 -5 3 -6 13 -3 22 4 11 3 14 -6 9 -6 -4 -20 -2 -29 6
-15 12 -16 11 -3 -4z"/>
<path d="M5005 5719 c-4 -6 -5 -12 -2 -15 2 -3 7 2 10 11 7 17 1 20 -8 4z"/>
<path d="M3585 5670 c3 -5 13 -10 21 -10 8 0 12 5 9 10 -3 6 -13 10 -21 10 -8
0 -12 -4 -9 -10z"/>
<path d="M3566 5645 c10 -8 24 -15 29 -15 6 0 37 -14 70 -30 57 -28 101 -41
62 -19 -13 8 -15 14 -7 30 9 16 7 19 -14 19 -13 0 -26 -4 -28 -9 -1 -5 -25 2
-53 15 -58 27 -90 32 -59 9z"/>
<path d="M3635 5650 c3 -5 10 -10 16 -10 5 0 9 5 9 10 0 6 -7 10 -16 10 -8 0
-12 -4 -9 -10z"/>
<path d="M3730 5650 c0 -5 5 -10 10 -10 6 0 10 5 10 10 0 6 -4 10 -10 10 -5 0
-10 -4 -10 -10z"/>
<path d="M4875 5650 c-3 -5 -1 -10 4 -10 6 0 11 5 11 10 0 6 -2 10 -4 10 -3 0
-8 -4 -11 -10z"/>
<path d="M4945 5640 c-3 -5 -1 -10 4 -10 6 0 11 5 11 10 0 6 -2 10 -4 10 -3 0
-8 -4 -11 -10z"/>
<path d="M3735 5600 c-3 -5 -1 -10 4 -10 6 0 11 5 11 10 0 6 -2 10 -4 10 -3 0
-8 -4 -11 -10z"/>
<path d="M4946 5548 c3 -5 10 -6 15 -3 13 9 11 12 -6 12 -8 0 -12 -4 -9 -9z"/>
<path d="M4923 5516 c-12 -14 -7 -26 10 -26 6 0 7 3 4 7 -4 3 -2 12 4 20 15
17 -2 16 -18 -1z"/>
<path d="M4990 5515 c-8 -9 -8 -15 -2 -15 12 0 26 19 19 26 -2 2 -10 -2 -17
-11z"/>
<path d="M4857 5506 c-4 -10 -5 -21 -2 -24 9 -9 17 6 13 25 -3 17 -4 17 -11
-1z"/>
<path d="M4732 5481 c-12 -10 -19 -21 -15 -25 12 -11 20 -6 31 19 14 30 12 31
-16 6z"/>
<path d="M5020 5490 c0 -5 5 -10 11 -10 5 0 7 5 4 10 -3 6 -8 10 -11 10 -2 0
-4 -4 -4 -10z"/>
<path d="M810 5481 c0 -6 5 -13 10 -16 6 -3 10 1 10 9 0 9 -4 16 -10 16 -5 0
-10 -4 -10 -9z"/>
<path d="M4877 5451 c-14 -27 -14 -31 -1 -31 9 0 13 4 10 9 -8 13 23 22 41 12
19 -10 53 -3 53 11 0 5 -13 7 -30 3 -22 -5 -30 -3 -28 6 6 28 -30 19 -45 -10z"/>
<path d="M4770 5436 c0 -2 7 -7 16 -10 8 -3 12 -2 9 4 -6 10 -25 14 -25 6z"/>
<path d="M5234 5415 c4 -35 26 -57 26 -26 0 12 4 20 10 16 5 -3 7 -12 3 -20
-3 -8 0 -15 6 -15 6 0 11 7 11 15 0 8 5 15 10 15 6 0 6 6 -2 13 -7 8 -20 12
-30 9 -10 -2 -18 1 -18 7 0 6 -4 11 -9 11 -5 0 -8 -11 -7 -25z"/>
<path d="M5344 5375 c-4 -10 -14 -14 -28 -10 -11 2 -15 2 -8 -1 6 -3 12 -11
12 -18 0 -10 28 -13 63 -7 14 2 7 26 -13 39 -17 10 -21 10 -26 -3z"/>
<path d="M4825 5360 c-3 -5 -1 -10 4 -10 6 0 11 5 11 10 0 6 -2 10 -4 10 -3 0
-8 -4 -11 -10z"/>
<path d="M4872 5357 c10 -8 15 -17 11 -21 -4 -4 1 -4 10 0 20 7 20 7 -13 23
-22 11 -23 10 -8 -2z"/>
<path d="M1075 5344 c9 -9 19 -13 23 -10 3 4 0 11 -8 16 -24 15 -33 11 -15 -6z"/>
<path d="M1040 5326 c0 -22 3 -27 11 -19 8 8 8 16 0 30 -9 16 -10 14 -11 -11z"/>
<path d="M5210 5325 c0 -2 10 -10 23 -16 20 -11 21 -11 8 4 -13 16 -31 23 -31
12z"/>
<path d="M4630 5310 c0 -5 7 -10 15 -10 8 0 15 5 15 10 0 6 -7 10 -15 10 -8 0
-15 -4 -15 -10z"/>
<path d="M5150 5316 c0 -2 7 -7 16 -10 8 -3 12 -2 9 4 -6 10 -25 14 -25 6z"/>
<path d="M5280 5316 c0 -2 7 -6 15 -10 8 -3 15 -1 15 4 0 6 -7 10 -15 10 -8 0
-15 -2 -15 -4z"/>
<path d="M5197 5304 c-4 -4 -7 -14 -7 -23 0 -11 3 -12 11 -4 6 6 10 16 7 23
-2 6 -7 8 -11 4z"/>
<path d="M5270 5291 c0 -5 7 -11 15 -15 8 -3 15 -1 15 3 0 5 -7 11 -15 15 -8
3 -15 1 -15 -3z"/>
<path d="M4610 5280 c0 -5 7 -10 16 -10 8 0 12 5 9 10 -3 6 -10 10 -16 10 -5
0 -9 -4 -9 -10z"/>
<path d="M5044 5275 c11 -8 24 -15 30 -15 5 0 1 7 -10 15 -10 8 -23 14 -29 14
-5 0 -1 -6 9 -14z"/>
<path d="M5120 5278 c0 -3 13 -11 29 -16 25 -9 28 -8 24 6 -4 16 -53 25 -53
10z"/>
<path d="M5230 5281 c0 -10 30 -24 37 -17 3 2 -5 9 -16 16 -12 6 -21 7 -21 1z"/>
<path d="M2530 5246 c0 -9 -8 -16 -17 -16 -24 0 -53 -29 -46 -47 4 -9 -1 -21
-11 -29 -14 -10 -15 -16 -6 -33 6 -12 15 -21 21 -21 6 0 24 -9 40 -21 16 -11
33 -17 39 -14 5 3 10 1 10 -4 0 -6 5 -11 10 -11 19 0 10 15 -20 32 -17 9 -30
22 -30 28 0 15 32 12 58 -6 12 -8 22 -14 23 -12 8 29 7 58 -1 58 -5 0 -10 5
-10 11 0 6 7 8 15 5 24 -9 -9 43 -46 72 -23 19 -29 20 -29 8z"/>
<path d="M5085 5250 c-4 -6 7 -24 24 -40 16 -17 32 -26 36 -21 3 6 -5 20 -17
32 l-23 22 38 -21 c45 -26 43 -26 51 -7 3 8 2 14 -2 13 -4 -1 -24 6 -46 15
-45 20 -53 21 -61 7z"/>
<path d="M5288 5243 c7 -3 16 -2 19 1 4 3 -2 6 -13 5 -11 0 -14 -3 -6 -6z"/>
<path d="M4573 5214 c-3 -9 0 -20 8 -25 16 -10 46 -12 36 -2 -4 3 1 12 11 19
9 8 12 14 5 14 -6 0 -15 -4 -18 -10 -10 -16 -28 -12 -21 5 3 8 1 15 -5 15 -5
0 -12 -7 -16 -16z"/>
<path d="M4840 5210 c0 -5 5 -10 11 -10 5 0 7 5 4 10 -3 6 -8 10 -11 10 -2 0
-4 -4 -4 -10z"/>
<path d="M4735 5200 c-3 -5 1 -10 10 -10 9 0 13 5 10 10 -3 6 -8 10 -10 10 -2
0 -7 -4 -10 -10z"/>
<path d="M5300 5200 c0 -5 5 -10 10 -10 6 0 10 5 10 10 0 6 -4 10 -10 10 -5 0
-10 -4 -10 -10z"/>
<path d="M1173 5193 c-13 -2 -23 -10 -23 -17 0 -16 61 -7 61 9 1 12 -9 13 -38
8z"/>
<path d="M4880 5190 c0 -5 4 -10 9 -10 5 0 18 -3 28 -6 16 -6 16 -5 -2 9 -23
19 -35 21 -35 7z"/>
<path d="M995 5170 c-4 -6 -12 -10 -18 -9 -7 1 -21 1 -31 0 -16 -1 -17 -4 -8
-13 10 -10 15 -10 21 1 5 8 11 9 15 3 5 -8 33 -9 75 -3 7 1 -33 30 -41 31 -4
0 -10 -5 -13 -10z"/>
<path d="M4513 5151 c-7 -11 -9 -22 -4 -25 5 -3 8 -26 7 -50 -1 -31 2 -42 11
-39 15 6 18 -23 3 -32 -5 -3 -10 -15 -10 -26 0 -10 -6 -28 -12 -39 -11 -17
-10 -22 1 -29 11 -7 8 -17 -17 -47 -26 -32 -29 -40 -17 -47 12 -7 11 -12 -10
-35 -14 -15 -25 -32 -25 -38 0 -6 -7 -17 -15 -24 -13 -11 -13 -14 2 -26 16
-12 16 -13 1 -14 -19 0 -31 -42 -27 -93 2 -23 -3 -40 -19 -57 -12 -13 -23 -29
-23 -34 -5 -44 -2 -76 6 -76 6 0 2 -7 -7 -14 -17 -12 -17 -15 -2 -46 13 -25
14 -34 4 -40 -10 -6 -7 -19 14 -56 21 -37 27 -62 28 -116 1 -42 5 -68 12 -68
6 0 5 -4 -3 -9 -11 -7 -11 -17 0 -62 7 -30 19 -61 26 -70 12 -14 12 -18 1 -22
-11 -4 -11 -8 0 -26 12 -21 11 -22 -10 -19 -20 3 -23 -1 -23 -32 0 -19 6 -48
14 -63 7 -16 11 -39 8 -53 -2 -13 0 -27 5 -30 4 -3 5 -11 1 -17 -4 -7 -8 -31
-8 -53 -1 -25 -9 -49 -19 -59 -21 -22 -13 -83 16 -107 17 -15 17 -18 4 -18 -9
0 -16 -4 -16 -10 0 -5 5 -10 10 -10 18 0 11 -20 -7 -20 -14 -1 -12 -4 7 -15
14 -8 21 -15 15 -15 -5 0 0 -9 13 -20 13 -11 21 -24 17 -30 -10 -17 -23 -11
-28 13 -4 22 -4 22 -14 -3 -10 -21 -8 -27 8 -39 23 -16 25 -31 4 -31 -22 0
-18 -28 5 -40 12 -6 25 -22 30 -36 5 -13 18 -24 28 -24 23 0 42 -19 35 -35 -2
-8 1 -23 7 -35 10 -18 9 -22 -9 -27 -27 -7 -27 -18 1 -37 19 -14 20 -16 4 -22
-10 -4 -25 1 -36 11 -28 25 -25 8 5 -31 30 -40 32 -58 5 -49 -23 7 -28 -13 -5
-21 8 -4 15 -14 15 -24 0 -11 5 -22 10 -25 18 -11 11 -22 -25 -39 -43 -21 -45
-34 -3 -38 17 -2 33 -9 36 -17 3 -9 -2 -11 -19 -7 -13 3 -18 3 -11 0 6 -3 12
-12 12 -19 0 -7 -6 -15 -12 -18 -10 -4 -10 -7 0 -18 10 -11 12 -11 12 2 0 16
47 41 55 29 3 -5 -6 -17 -20 -28 -24 -19 -19 -42 5 -27 12 8 13 -15 1 -34 -6
-9 -18 -11 -34 -7 -28 7 -46 -9 -29 -26 8 -8 16 -7 26 2 13 10 17 9 22 -4 10
-27 -3 -48 -26 -41 -14 5 -20 2 -20 -10 0 -12 6 -14 28 -9 25 7 26 6 13 -10
-13 -15 -13 -19 -1 -26 11 -7 9 -13 -11 -29 -13 -11 -31 -20 -39 -20 -9 0 -6
5 8 11 24 12 30 38 8 38 -8 0 -16 3 -19 8 -2 4 -2 1 0 -6 1 -7 -2 -22 -7 -33
-9 -15 -7 -21 5 -25 8 -4 14 -13 13 -22 -4 -23 17 -25 28 -3 7 16 11 17 21 6
10 -11 9 -15 -6 -20 -24 -7 -35 -56 -15 -71 18 -14 18 -30 -1 -38 -8 -3 -15
-15 -15 -26 0 -23 -10 -26 -28 -8 -16 16 -22 7 -24 -36 -1 -29 -7 -39 -31 -51
-21 -10 -34 -12 -48 -4 -10 5 -19 12 -19 15 0 3 5 2 12 -2 7 -4 8 -3 4 4 -4 7
-18 12 -31 12 -13 0 -35 4 -50 10 -24 9 -25 8 -15 -10 6 -11 18 -20 26 -20 11
0 13 -6 9 -20 -5 -15 0 -22 18 -29 14 -6 32 -19 40 -31 9 -13 20 -18 31 -14
12 4 16 0 16 -15 0 -12 -4 -21 -10 -21 -5 0 -10 -14 -10 -32 0 -17 -3 -28 -7
-24 -4 4 -7 19 -8 34 0 19 -5 26 -15 23 -8 -2 -24 -4 -35 -6 -11 -1 -24 -3
-28 -4 -5 0 -6 -5 -2 -11 3 -5 12 -7 19 -4 18 7 31 -15 18 -28 -7 -7 -18 -4
-36 7 -22 15 -27 15 -47 2 l-21 -15 23 -5 c22 -4 21 -4 -4 -6 -16 0 -26 -4
-24 -8 2 -5 -16 -18 -40 -31 -45 -22 -45 -22 -50 -2 -8 30 -29 18 -25 -13 3
-20 -1 -27 -15 -28 -10 -1 -22 -2 -28 -4 -5 -1 -14 -3 -20 -4 -5 -1 -2 -8 8
-15 12 -9 14 -16 8 -21 -14 -8 -33 3 -26 15 3 5 1 11 -4 14 -15 10 -43 -25
-38 -45 4 -15 -1 -19 -23 -19 -22 0 -27 -4 -23 -18 2 -10 -3 -24 -11 -31 -22
-18 -20 -28 6 -34 22 -6 22 -6 -7 -37 l-29 -30 24 0 c16 0 21 -3 14 -10 -6 -6
-22 -6 -44 0 -24 7 -37 6 -45 -2 -7 -8 -5 -9 8 -5 11 4 17 1 17 -8 0 -9 5 -24
12 -34 9 -14 8 -23 -5 -42 -10 -13 -17 -31 -17 -41 0 -15 -4 -16 -26 -8 -17 7
-32 6 -47 -2 -22 -11 -22 -11 6 -21 44 -14 32 -23 -49 -35 -82 -11 -94 -16
-76 -34 8 -8 19 -7 44 4 20 9 48 14 71 11 37 -5 63 -23 33 -23 -9 0 -16 -4
-16 -10 0 -5 5 -10 10 -10 6 0 10 -7 10 -16 0 -13 -3 -14 -14 -5 -10 9 -16 9
-21 1 -4 -6 1 -18 11 -25 13 -9 14 -14 6 -15 -14 0 -47 28 -47 41 0 4 -4 11
-8 16 -5 4 -7 -12 -5 -37 2 -29 -2 -51 -12 -62 -17 -22 -40 -23 -40 -4 0 9 -7
12 -20 9 -25 -7 -26 -29 -2 -42 16 -10 16 -10 0 -11 -22 0 -23 -16 -2 -24 8
-3 13 -10 9 -15 -3 -6 -12 -8 -20 -4 -8 3 -15 0 -15 -6 0 -6 7 -11 15 -11 9 0
12 -6 9 -15 -4 -8 -10 -15 -16 -15 -5 0 -6 5 -3 10 3 6 -3 10 -15 10 -12 0
-19 -4 -15 -9 3 -6 -3 -15 -12 -21 -13 -8 -14 -13 -5 -16 17 -8 15 -24 -3 -24
-8 0 -15 9 -15 21 0 11 -4 17 -10 14 -16 -10 -12 -37 8 -51 18 -13 17 -17 -40
-72 -10 -9 -18 -24 -18 -34 0 -9 -5 -20 -10 -23 -6 -4 -8 -12 -4 -18 3 -7 -4
-1 -15 13 -17 20 -21 22 -21 8 0 -10 4 -18 9 -18 5 0 12 -9 16 -19 4 -12 12
-18 21 -14 7 3 14 0 14 -6 0 -6 -4 -11 -8 -11 -15 0 -62 25 -62 33 0 4 -7 7
-15 7 -8 0 -15 5 -15 12 0 6 -2 9 -5 6 -9 -9 6 -38 20 -38 20 0 25 -25 12 -59
-8 -22 -18 -31 -34 -31 -12 0 -25 -4 -28 -10 -4 -6 6 -10 22 -10 20 0 24 -3
14 -9 -7 -5 -11 -15 -9 -22 3 -8 -4 -27 -16 -44 -11 -16 -20 -36 -18 -43 2 -7
-4 -15 -12 -18 -10 -4 -14 -16 -12 -36 3 -25 1 -29 -15 -25 -14 4 -19 0 -19
-14 0 -11 5 -16 14 -13 9 3 15 -4 18 -20 3 -16 1 -26 -6 -26 -6 0 -19 -17 -28
-38 -46 -99 -118 -161 -190 -162 -20 0 -40 -5 -43 -10 -12 -19 -30 -10 -43 20
-14 31 -32 32 -32 2 -1 -28 -23 -48 -60 -55 -19 -3 -46 -9 -59 -13 -14 -4 -22
-3 -19 2 3 5 -1 15 -9 23 -13 12 -14 11 -8 -9 6 -19 5 -21 -10 -12 -20 10 -55
5 -55 -9 0 -5 -10 -7 -22 -6 -18 3 -23 12 -26 43 -2 21 -5 40 -7 42 -1 2 -13
-17 -25 -42 -20 -43 -23 -45 -38 -29 -22 21 -41 78 -44 126 -1 20 -5 37 -8 37
-16 0 -17 39 -3 71 8 19 23 57 33 84 17 50 104 153 123 147 5 -2 7 4 4 13 -4
8 -2 15 3 15 19 0 25 2 38 12 6 6 12 19 12 29 0 9 6 24 13 31 7 7 16 21 20 31
4 10 21 24 38 31 23 10 33 21 35 40 1 14 -2 24 -7 21 -15 -10 -10 8 11 43 21
34 35 40 43 20 2 -7 8 13 12 46 5 36 4 61 -2 65 -11 6 -16 71 -6 71 3 0 12 -8
20 -17 13 -16 13 -15 2 6 -9 20 -9 26 5 36 9 7 16 18 16 26 -1 10 -5 8 -15 -5
-27 -35 -24 -12 5 47 16 33 27 64 24 70 -5 14 18 62 27 56 3 -2 13 2 22 10 12
9 14 18 7 31 -8 15 -6 17 13 13 12 -3 19 -3 16 1 -4 4 4 19 17 33 19 21 21 28
11 44 -9 15 -9 21 0 27 8 5 9 13 3 22 -5 8 -6 28 -3 45 l6 30 -28 -28 c-36
-35 -51 -30 -48 18 l3 38 -23 -25 c-41 -45 -97 -56 -82 -16 3 8 -1 21 -10 28
-20 17 -19 30 3 31 13 0 14 2 2 6 -8 3 -18 10 -21 16 -4 5 -12 0 -18 -12 -14
-24 -33 -29 -24 -5 5 14 3 14 -18 2 -34 -19 -49 -35 -49 -51 0 -8 -13 -20 -30
-27 -16 -7 -28 -15 -27 -19 1 -3 -3 -7 -8 -9 -21 -7 -45 -36 -41 -49 3 -7 -1
-13 -9 -13 -17 0 -10 -29 12 -46 7 -7 13 -16 12 -20 -1 -5 1 -17 6 -27 4 -11
3 -23 -4 -30 -16 -16 -14 -27 7 -28 10 0 12 -3 5 -6 -17 -6 -16 -31 1 -65 10
-19 11 -29 3 -37 -9 -9 -8 -14 2 -21 15 -9 20 -117 6 -139 -4 -7 -4 -24 -1
-37 5 -17 3 -23 -4 -19 -6 4 -10 -4 -10 -22 2 -59 -9 -120 -29 -161 -12 -23
-19 -47 -16 -52 3 -6 1 -10 -4 -10 -6 0 -11 -7 -11 -16 0 -8 -5 -12 -11 -8 -7
4 -9 0 -5 -14 5 -14 1 -25 -12 -34 -10 -7 -19 -28 -20 -48 -3 -33 -30 -70 -53
-70 -7 0 -10 -11 -7 -29 3 -23 -1 -32 -19 -40 -13 -6 -23 -17 -23 -25 0 -7
-19 -23 -43 -34 -23 -11 -49 -32 -56 -46 -18 -33 -27 -33 -36 1 l-7 28 -19
-24 c-21 -25 -41 -30 -146 -34 -67 -3 -107 -25 -95 -55 5 -15 4 -15 -12 0 -21
22 -30 22 -46 3 -17 -20 -31 -19 -23 1 5 13 2 15 -17 9 -20 -6 -22 -5 -16 18
4 17 1 27 -9 31 -8 3 -15 16 -15 29 0 13 -5 28 -10 33 -6 6 -12 24 -15 40 -2
16 -8 43 -13 60 -6 17 -6 37 -1 46 5 8 8 28 8 44 -1 53 21 158 41 199 11 23
20 46 20 52 0 6 7 14 16 17 8 3 13 10 10 14 -3 5 4 18 14 30 11 12 20 24 20
27 0 4 6 13 14 20 17 17 29 135 17 166 -9 24 -11 32 -11 47 0 4 -5 -1 -11 -11
-5 -9 -21 -17 -34 -17 -13 0 -29 8 -35 17 -10 15 -11 15 -6 1 2 -9 -1 -24 -8
-33 -12 -17 -14 -17 -28 4 -10 14 -21 19 -32 15 -11 -4 -16 -1 -16 10 0 11 -9
16 -26 16 -23 0 -26 3 -21 28 3 15 1 50 -4 77 -6 28 -12 65 -14 82 -2 18 -9
42 -15 53 -12 23 -6 40 16 40 8 0 15 5 15 10 2 17 5 24 23 65 10 22 19 47 20
55 3 16 10 38 32 87 8 17 14 36 14 42 0 6 11 11 24 11 13 0 29 7 36 15 7 8 17
15 22 15 5 0 18 10 28 22 17 22 17 24 -3 53 -18 24 -22 45 -23 107 -1 60 -5
82 -19 97 -16 19 -16 21 -1 37 17 17 13 53 -7 65 -5 4 -7 15 -3 24 5 14 2 17
-18 13 -17 -4 -23 -1 -19 9 3 8 -2 13 -13 13 -16 0 -15 2 4 23 25 27 30 46 7
27 -22 -18 -31 -4 -12 18 23 26 21 32 -10 32 -16 0 -35 4 -43 10 -12 8 -12 10
3 16 24 9 21 28 -8 44 l-24 13 42 38 c40 37 41 40 24 53 -11 8 -26 12 -35 9
-11 -5 -14 -2 -9 10 4 11 1 17 -9 17 -11 0 -12 4 -4 19 5 11 10 22 10 25 0 11
-36 6 -49 -6 -11 -11 -11 -9 -2 10 10 18 9 22 -4 22 -23 0 -18 19 7 30 l23 9
-22 0 c-30 1 -29 14 2 31 14 7 25 17 25 21 0 4 -11 10 -25 13 -30 8 -33 22 -5
29 10 3 22 17 26 31 8 31 -14 61 -52 70 -26 7 -24 26 3 26 15 0 42 27 43 43 0
4 -7 7 -16 7 -11 0 -14 6 -9 20 6 20 -9 28 -20 10 -3 -5 -11 -10 -17 -10 -7 0
-6 5 2 15 15 18 5 35 -23 35 l-22 1 24 19 c13 11 19 21 15 22 -5 0 -13 2 -19
3 -5 2 -17 3 -25 4 -27 3 22 26 65 31 6 0 2 7 -8 14 -16 13 -16 14 8 20 28 7
34 36 8 36 -17 1 -17 1 -1 14 25 18 23 23 -12 28 -18 3 -31 0 -34 -9 -3 -7
-11 -10 -19 -7 -17 6 -43 -21 -27 -31 15 -9 12 -25 -4 -25 -8 0 -16 10 -19 23
-3 20 -4 19 -12 -8 -4 -16 -12 -33 -17 -36 -5 -3 -10 -16 -11 -27 -1 -13 -8
-22 -18 -22 -30 0 -49 -12 -49 -30 0 -13 6 -16 25 -12 14 2 25 0 25 -6 0 -6
-20 -14 -44 -17 -25 -4 -54 -16 -65 -27 -18 -16 -22 -17 -27 -4 -3 9 -12 16
-20 16 -22 0 -16 -14 11 -27 20 -9 28 -8 40 3 8 8 16 10 20 5 7 -12 -35 -42
-48 -34 -6 4 -8 -1 -4 -11 4 -10 7 -19 7 -20 0 -2 11 -1 25 2 27 5 33 -9 12
-27 -9 -7 -17 -7 -24 0 -7 7 -15 5 -27 -6 -9 -9 -16 -12 -16 -7 0 15 -49 9
-55 -7 -3 -8 -1 -17 4 -20 21 -13 -41 -61 -78 -61 -11 0 -23 -4 -26 -10 -8
-13 -45 -13 -45 0 0 6 -16 8 -42 4 -59 -9 -67 -20 -13 -16 28 3 45 0 45 -7 0
-6 -9 -11 -21 -11 -11 0 -18 -4 -14 -9 3 -5 30 -9 60 -8 30 1 55 -1 55 -5 0
-4 7 -5 17 -1 13 5 15 2 11 -14 -3 -12 -2 -27 3 -34 11 -18 -6 -36 -42 -44
-41 -9 -39 -37 4 -34 129 9 207 -12 92 -25 -119 -13 -155 -19 -155 -27 0 -5
-10 -5 -22 0 -38 13 -107 1 -123 -21 -11 -16 -29 -22 -84 -27 -72 -7 -111 -20
-44 -15 21 1 110 8 198 14 88 6 180 10 205 8 42 -3 40 -4 -35 -16 -44 -7 -123
-17 -175 -21 -52 -5 -117 -12 -145 -15 -27 -4 -95 -9 -150 -12 -55 -3 -104
-10 -110 -15 -14 -14 15 -30 40 -22 11 3 59 7 107 7 47 1 84 4 82 7 -2 3 8 4
22 1 13 -2 66 0 117 6 119 14 314 26 307 19 -8 -8 -274 -47 -321 -47 -29 0
-39 -4 -39 -16 0 -13 3 -14 13 -5 9 7 33 9 63 5 27 -3 73 -7 101 -7 46 -1 52
-4 47 -19 -4 -14 0 -18 20 -18 35 0 42 -18 17 -43 -12 -12 -21 -16 -21 -9 0 7
-9 12 -19 12 -11 0 -23 5 -26 10 -10 17 -25 11 -25 -9 0 -10 -6 -19 -12 -18
-35 1 -58 -4 -58 -13 0 -5 11 -10 25 -10 14 0 25 3 25 8 0 4 18 7 40 7 22 1
40 -3 40 -8 0 -4 4 -6 9 -3 5 3 14 0 20 -8 9 -10 6 -17 -14 -30 -14 -9 -25
-23 -25 -30 0 -7 -15 -17 -32 -21 -23 -5 -27 -9 -15 -12 23 -6 22 -23 -3 -23
-11 0 -20 -4 -20 -9 0 -5 -7 -11 -16 -13 -13 -2 -11 -8 11 -30 15 -16 36 -28
46 -28 27 0 23 -28 -3 -29 -36 -1 -111 -12 -128 -18 -17 -6 -137 -13 -227 -13
-67 0 -100 -19 -36 -21 21 -1 99 -3 173 -4 183 -4 184 -5 110 -25 -36 -10 -60
-19 -55 -19 6 -1 3 -6 -5 -11 -11 -7 2 -10 45 -10 l60 -1 -37 -16 c-21 -8 -38
-18 -38 -22 0 -4 28 -6 62 -5 l63 3 -47 -11 c-28 -7 -48 -17 -48 -25 0 -16 12
-17 28 -1 8 8 15 8 26 -1 12 -10 17 -9 26 6 11 17 11 17 6 0 -3 -10 -6 -23 -6
-29 0 -6 -7 -5 -16 3 -14 11 -18 11 -29 -4 -6 -9 -23 -18 -36 -21 -18 -2 -23
-9 -22 -25 3 -24 -24 -30 -33 -6 -4 8 -11 15 -16 15 -7 0 -6 -5 0 -13 9 -10 8
-19 -3 -34 -13 -18 -12 -22 5 -38 24 -22 26 -35 4 -35 -8 0 -12 -5 -9 -10 4
-6 18 -9 33 -8 15 0 47 -2 72 -7 42 -7 43 -9 18 -15 -14 -5 -54 -11 -87 -15
-34 -4 -63 -11 -66 -15 -3 -5 -24 -7 -46 -4 l-40 5 17 -27 c18 -27 18 -27 -6
-20 -23 6 -24 6 -5 -5 23 -14 35 -30 34 -44 0 -5 -3 -4 -6 3 -6 14 -33 16 -33
2 0 -5 -7 -10 -15 -10 -8 0 -15 -5 -15 -10 0 -6 10 -8 24 -4 15 3 25 1 28 -8
4 -10 -7 -14 -48 -13 -30 0 -54 -3 -54 -7 0 -5 9 -8 20 -8 11 0 20 -4 20 -10
0 -12 -37 -13 -44 -1 -3 5 -31 3 -63 -5 -32 -7 -80 -17 -108 -22 l-50 -10 45
-1 c25 -1 58 -8 74 -16 31 -16 71 -11 60 7 -5 8 -1 9 12 3 10 -4 35 -9 54 -11
l35 -3 -35 8 -35 8 32 2 c17 0 35 -3 38 -9 3 -5 20 -7 37 -3 23 5 29 3 23 -6
-6 -10 -3 -11 14 -1 12 6 32 8 44 4 l22 -7 -22 -8 c-13 -5 -41 -10 -63 -13
-22 -3 -44 -7 -49 -10 -5 -3 -30 -7 -55 -8 -26 0 -49 -5 -51 -9 -3 -4 -15 -5
-28 -3 -20 4 -21 4 -2 -5 11 -5 36 -7 55 -5 19 2 66 6 103 8 55 4 66 2 57 -8
-5 -8 -31 -16 -57 -19 -26 -3 -49 -9 -51 -15 -1 -5 -12 -7 -24 -4 -14 3 -19 1
-14 -6 7 -12 -29 -36 -42 -28 -4 2 -8 -8 -9 -22 -1 -26 -1 -26 13 -7 13 17 16
18 24 5 8 -12 10 -13 10 -1 0 8 2 12 5 10 10 -11 -19 -79 -34 -80 -9 -1 -32
-4 -51 -7 -19 -3 -56 -6 -81 -6 -58 -1 -55 -21 4 -21 25 -1 42 -6 43 -13 1 -7
2 -14 3 -17 0 -2 16 4 35 14 39 22 61 15 41 -13 -8 -11 -21 -16 -30 -12 -13 5
-14 2 -5 -15 8 -15 8 -24 0 -34 -6 -8 -9 -22 -6 -32 7 -23 -31 -50 -47 -34 -8
8 -6 11 5 11 28 0 29 16 2 45 -27 30 -46 26 -26 -6 12 -18 10 -19 -15 -13 -16
4 -25 4 -21 0 9 -10 -23 -47 -34 -40 -5 3 -4 12 3 20 9 12 5 14 -30 14 -30 0
-41 -4 -41 -15 0 -15 -24 -22 -73 -23 -34 0 -57 -18 -57 -44 0 -17 -5 -19 -31
-13 -22 5 -29 4 -25 -4 9 -14 -41 -61 -65 -61 -9 0 -19 6 -22 13 -2 6 -7 9
-11 6 -8 -7 16 -59 28 -59 4 0 6 7 2 15 -3 9 0 15 9 15 9 0 12 -6 9 -17 -4
-11 -3 -14 3 -7 4 6 19 15 32 19 16 5 20 10 11 15 -20 12 74 44 96 32 21 -12
54 -4 54 14 0 8 -6 11 -15 8 -9 -4 -15 0 -15 10 0 8 19 25 42 37 24 12 46 26
49 32 10 15 42 -1 35 -18 -3 -8 2 -18 11 -23 12 -7 8 -10 -17 -16 -27 -5 -30
-8 -20 -20 6 -8 17 -13 25 -10 7 3 16 1 19 -4 11 -18 -27 -23 -46 -5 -30 27
-53 26 -54 -2 -2 -26 11 -34 19 -12 4 9 7 9 14 0 5 -7 27 -17 48 -22 22 -5 32
-9 22 -10 -15 -1 -15 -4 -5 -21 11 -16 14 -17 21 -5 4 8 15 15 23 15 12 0 13
-4 3 -23 -11 -20 -11 -21 4 -9 9 8 22 10 29 6 7 -4 31 -7 53 -6 l40 3 -24 -21
c-13 -12 -30 -19 -38 -16 -7 3 -13 1 -13 -3 0 -5 -10 -7 -23 -4 -17 4 -19 2
-7 -6 18 -12 13 -17 -27 -25 -29 -7 -31 -5 -26 16 4 18 3 20 -6 8 -15 -20 -14
-57 2 -63 16 -6 -19 -34 -54 -42 -16 -4 -29 -15 -33 -28 -7 -29 -3 -31 34 -12
23 12 35 13 45 5 9 -8 15 -8 20 0 9 15 25 12 25 -5 0 -8 -9 -19 -20 -25 -15
-8 -20 -8 -20 1 0 7 -3 10 -6 7 -6 -7 13 -44 35 -67 12 -14 11 -16 -10 -22
-28 -7 -42 -2 -33 12 3 5 10 7 15 4 14 -9 11 9 -5 30 -10 14 -17 17 -27 9 -8
-6 -27 -14 -44 -17 -16 -4 -24 -4 -17 -1 19 8 14 24 -7 24 -21 0 -44 -23 -34
-34 4 -3 -3 -15 -15 -26 -12 -12 -22 -25 -22 -29 0 -14 37 -1 56 20 9 10 22
19 27 19 6 0 7 -3 4 -7 -4 -3 0 -11 8 -17 10 -8 12 -15 5 -26 -9 -13 -11 -13
-19 0 -9 12 -12 12 -28 -1 -10 -8 -33 -15 -50 -15 -25 1 -33 -3 -33 -16 0 -10
-4 -18 -9 -18 -14 0 -32 26 -23 35 4 5 1 5 -5 1 -7 -4 -13 -14 -13 -23 0 -10
-6 -14 -19 -10 -13 3 -21 -1 -24 -14 -3 -13 -11 -17 -21 -13 -9 3 -16 1 -16
-5 0 -6 -12 -11 -27 -11 -16 1 -50 -4 -78 -11 -40 -10 -46 -13 -30 -20 19 -7
19 -8 -2 -8 -13 -1 -23 4 -23 9 0 6 -4 10 -10 10 -5 0 -10 -7 -10 -15 0 -8 -7
-15 -15 -15 -8 0 -15 5 -15 10 0 6 -12 10 -27 9 l-28 0 25 -11 c24 -10 23 -11
-25 -23 -52 -12 -69 -10 -60 6 11 16 -7 9 -21 -9 -11 -14 -16 -15 -33 -4 -17
10 -21 10 -19 0 2 -8 -11 -14 -34 -16 -51 -4 -49 -22 2 -22 22 0 40 -4 40 -10
0 -19 37 -10 58 15 12 14 32 25 43 25 21 0 21 -1 6 -18 -11 -12 -13 -22 -7
-32 15 -24 11 -31 -10 -20 -16 9 -20 8 -20 -5 0 -8 -8 -15 -17 -16 -12 0 -13
-2 -5 -6 7 -3 20 1 28 8 13 10 17 10 23 0 11 -17 62 -10 74 10 8 13 6 21 -7
34 -17 17 -17 17 -14 -1 2 -12 -3 -19 -12 -19 -8 0 -16 10 -18 22 -3 17 6 27
37 42 44 23 87 28 75 10 -4 -8 0 -7 15 1 44 23 231 47 231 29 0 -5 9 -9 20 -9
11 0 20 5 20 10 0 6 7 10 16 10 8 0 12 -4 9 -10 -3 -5 1 -10 9 -10 8 0 18 5
21 10 5 8 11 7 21 -1 8 -6 21 -8 31 -4 10 5 22 7 27 6 5 -1 13 4 17 11 6 9 9
7 9 -7 -1 -11 -11 -32 -24 -47 -20 -23 -29 -26 -53 -19 -58 16 -126 1 -116
-26 4 -11 2 -14 -5 -9 -7 4 -12 14 -12 22 0 20 -17 17 -33 -7 -14 -20 -16 -20
-40 -4 -20 13 -30 14 -46 6 -11 -6 -29 -11 -40 -11 -11 0 -26 -6 -33 -13 -16
-17 -72 -32 -64 -18 4 5 2 12 -3 15 -14 9 -21 -21 -8 -32 7 -6 28 -9 47 -7 38
3 70 -3 70 -13 0 -4 -21 -8 -46 -9 -26 -1 -49 -5 -52 -8 -12 -11 11 -19 53
-16 27 1 45 -2 45 -9 0 -6 -20 -11 -48 -11 -72 0 -115 -4 -135 -13 -10 -5 -20
-6 -23 -3 -11 11 8 27 31 27 19 0 23 4 20 21 -6 29 -15 37 -15 13 0 -18 -50
-49 -72 -45 -5 0 -8 -5 -8 -13 0 -16 -78 -28 -96 -15 -6 5 -20 0 -32 -12 -22
-20 -29 -40 -14 -38 15 1 46 18 35 18 -7 1 -13 6 -13 12 0 6 12 2 27 -9 16
-10 35 -22 43 -25 10 -4 8 -6 -7 -6 -12 -1 -23 4 -25 9 -2 7 -15 5 -36 -5 -23
-12 -32 -23 -32 -41 0 -25 24 -34 33 -11 4 9 6 9 6 0 1 -7 13 -13 27 -13 14 0
23 4 19 10 -3 6 1 10 9 10 9 0 16 -4 16 -8 0 -12 163 -11 178 0 8 7 12 7 12
-1 0 -7 8 -10 18 -7 9 3 64 6 122 7 62 1 108 7 113 13 6 8 10 7 14 -1 3 -9 10
-10 23 -3 13 7 23 6 32 -3 15 -14 71 -20 62 -6 -3 5 -14 9 -25 9 -10 0 -19 4
-19 9 0 4 16 7 35 5 19 -1 35 2 35 7 0 11 41 12 59 0 8 -5 11 -16 8 -25 -6
-15 232 -16 2808 -16 l2815 0 0 2203 0 2202 -73 28 c-39 16 -81 32 -92 37 -96
41 -118 49 -126 44 -5 -3 -9 -1 -9 4 0 5 -19 17 -42 27 -106 43 -135 55 -170
65 -21 6 -40 16 -43 21 -4 5 -15 9 -27 9 -11 0 -33 9 -48 20 -16 11 -35 17
-44 14 -9 -3 -16 -1 -16 5 0 6 -32 20 -70 32 -39 11 -73 25 -76 30 -3 5 -12 9
-20 9 -8 0 -46 16 -85 35 -39 19 -78 35 -85 35 -8 0 -32 11 -54 25 -22 14 -45
25 -52 25 -7 0 -40 14 -73 30 -43 21 -62 26 -67 17 -5 -8 -8 -7 -8 5 0 10 -14
21 -35 28 -19 6 -35 15 -35 19 0 3 -11 8 -23 9 -13 1 -37 8 -53 17 -16 8 -36
15 -44 15 -8 0 -37 12 -65 25 -27 14 -56 25 -63 25 -7 0 -30 9 -50 19 -20 11
-75 34 -122 52 -47 17 -90 33 -95 35 -6 2 -16 -5 -22 -15z m2 -1891 c3 -5 -1
-10 -9 -10 -8 0 -18 5 -21 10 -3 6 1 10 9 10 8 0 18 -4 21 -10z m-2832 -247
c-8 -21 -20 -15 -17 10 4 33 4 33 13 18 5 -8 7 -20 4 -28z m-118 -123 c4 -6
-6 -10 -22 -9 -25 0 -26 1 -8 9 11 5 21 9 22 9 1 1 5 -3 8 -9z m55 6 c0 -2 -7
-7 -16 -10 -8 -3 -12 -2 -9 4 6 10 25 14 25 6z m2930 -81 c0 -8 -4 -15 -10
-15 -5 0 -10 7 -10 15 0 8 5 15 10 15 6 0 10 -7 10 -15z m-3040 -75 c0 -5 -4
-10 -10 -10 -5 0 -10 5 -10 10 0 6 5 10 10 10 6 0 10 -4 10 -10z m3077 -286
c-3 -3 -12 -4 -19 -1 -8 3 -5 6 6 6 11 1 17 -2 13 -5z m-20 -156 c-3 -7 -5 -2
-5 12 0 14 2 19 5 13 2 -7 2 -19 0 -25z m-80 -130 c-3 -7 -5 -2 -5 12 0 14 2
19 5 13 2 -7 2 -19 0 -25z m-152 2 c3 -5 1 -10 -4 -10 -6 0 -11 5 -11 10 0 6
2 10 4 10 3 0 8 -4 11 -10z m-2888 -56 c-9 -9 -28 6 -21 18 4 6 10 6 17 -1 6
-6 8 -13 4 -17z m-47 -74 c-20 -13 -40 -13 -40 0 0 6 12 10 28 10 21 0 24 -2
12 -10z m2970 -49 c0 -6 -4 -13 -10 -16 -5 -3 -10 1 -10 9 0 9 5 16 10 16 6 0
10 -4 10 -9z m-2980 -5 c0 -2 -9 -6 -20 -9 -11 -3 -18 -1 -14 4 5 9 34 13 34
5z m2890 -6 c0 -5 -7 -10 -15 -10 -8 0 -15 5 -15 10 0 6 7 10 15 10 8 0 15 -4
15 -10z m50 0 c0 -5 -4 -10 -9 -10 -6 0 -13 5 -16 10 -3 6 1 10 9 10 9 0 16
-4 16 -10z m178 -71 c-26 -14 -22 -32 5 -27 27 5 42 -8 49 -45 4 -22 3 -25 -8
-16 -8 6 -14 18 -14 26 0 13 -3 13 -15 3 -18 -15 -20 -41 -4 -57 8 -8 7 -17
-5 -34 -18 -27 -20 -38 -7 -58 8 -12 12 -12 25 -2 13 11 17 10 22 -4 4 -9 3
-20 -2 -24 -12 -8 -14 -41 -3 -41 5 0 9 7 9 15 0 8 5 15 10 15 14 0 12 -37 -2
-43 -9 -3 -5 -11 10 -22 22 -16 22 -18 7 -35 -11 -12 -13 -20 -5 -25 15 -9 1
-28 -16 -21 -20 8 -17 -14 4 -31 16 -14 16 -14 -1 -9 -25 8 -78 -5 -74 -18 2
-6 18 -11 35 -11 35 1 41 -9 15 -24 -17 -9 -17 -10 0 -28 23 -26 22 -33 -8
-33 -18 0 -23 4 -19 15 4 8 1 15 -4 15 -6 0 -14 -16 -18 -35 -6 -34 -32 -53
-54 -40 -6 4 -22 -5 -35 -19 -13 -14 -20 -26 -16 -26 5 0 12 -7 15 -16 3 -8 2
-12 -4 -9 -5 3 -17 -6 -26 -20 -21 -32 -54 -34 -54 -3 0 20 -3 19 -29 -11 -16
-18 -34 -30 -40 -26 -6 3 -11 -1 -11 -9 0 -10 6 -13 15 -10 8 4 15 2 15 -4 0
-6 3 -17 6 -26 8 -21 -10 -20 -42 0 -19 13 -22 20 -13 30 9 11 6 14 -14 14
-16 0 -28 7 -32 19 -3 11 -12 22 -20 25 -8 3 -15 12 -15 21 0 20 -19 19 -37
-2 -13 -17 -14 -17 -8 3 4 15 -1 24 -17 32 -13 6 -17 11 -10 11 6 1 12 7 12
15 0 8 6 16 13 19 9 3 9 8 -2 21 -12 14 -11 20 8 40 22 23 20 39 -5 29 -19 -7
-18 21 1 37 11 9 13 16 5 24 -13 13 -13 73 0 81 9 5 14 -16 13 -52 -1 -7 5
-13 13 -13 10 0 12 11 8 43 -7 59 -12 70 -29 63 -19 -7 -26 6 -14 24 8 12 12
12 16 3 8 -21 23 -15 23 10 0 12 4 28 9 35 6 10 10 7 15 -12 6 -25 26 -37 26
-16 0 6 -5 10 -11 10 -5 0 -7 5 -4 10 9 15 25 12 25 -5 0 -19 14 -19 30 0 14
16 6 35 -16 35 -17 0 -18 -5 5 55 13 35 25 51 40 53 19 3 26 19 22 45 -1 5 4
6 11 3 7 -3 21 -9 31 -12 9 -4 17 -10 17 -15 0 -17 15 -9 25 14 6 12 21 23 35
25 14 2 29 8 35 13 5 5 19 9 31 9 13 0 24 8 27 20 3 11 13 20 24 20 17 -1 17
-1 1 -11z m-98 -19 c-19 -13 -30 -13 -30 0 0 6 10 10 23 10 18 0 19 -2 7 -10z
m-80 -20 c13 -8 13 -10 -2 -10 -9 0 -20 5 -23 10 -8 13 5 13 25 0z m-3030 -35
c10 -12 10 -15 -4 -15 -9 0 -16 7 -16 15 0 8 2 15 4 15 2 0 9 -7 16 -15z
m2876 -30 c16 -12 16 -14 3 -15 -9 0 -22 7 -29 15 -16 19 0 19 26 0z m18 -50
c-4 -8 -10 -15 -15 -15 -5 0 -9 7 -9 15 0 8 7 15 15 15 9 0 12 -6 9 -15z
m-2804 -65 c0 -5 -7 -10 -15 -10 -8 0 -15 5 -15 10 0 6 7 10 15 10 8 0 15 -4
15 -10z m-220 -70 c0 -5 -4 -10 -10 -10 -5 0 -10 5 -10 10 0 6 5 10 10 10 6 0
10 -4 10 -10z m5 -40 c3 -5 -3 -10 -14 -10 -12 0 -21 5 -21 10 0 6 6 10 14 10
8 0 18 -4 21 -10z m1995 -10 c0 -5 -2 -10 -4 -10 -3 0 -8 5 -11 10 -3 6 -1 10
4 10 6 0 11 -4 11 -10z m703 -56 c9 -9 -4 -35 -14 -28 -5 3 -9 12 -9 20 0 14
12 19 23 8z m48 -54 c-24 -21 -41 -26 -41 -12 0 15 24 32 45 32 19 -1 19 -1
-4 -20z m159 -69 c0 -6 -4 -13 -10 -16 -5 -3 -10 1 -10 9 0 9 5 16 10 16 6 0
10 -4 10 -9z m-2747 -8 c-7 -2 -19 -2 -25 0 -7 3 -2 5 12 5 14 0 19 -2 13 -5z
m-123 -13 c0 -5 -4 -10 -9 -10 -5 0 -18 -3 -28 -7 -16 -6 -16 -5 -4 10 15 19
41 23 41 7z m2550 -95 c0 -8 -4 -15 -10 -15 -5 0 -7 7 -4 15 4 8 8 15 10 15 2
0 4 -7 4 -15z m-2719 -42 c-8 -15 -10 -15 -11 -2 0 17 10 32 18 25 2 -3 -1
-13 -7 -23z m79 7 c0 -5 -7 -10 -16 -10 -8 0 -12 5 -9 10 3 6 10 10 16 10 5 0
9 -4 9 -10z m3035 -41 c11 -17 -1 -21 -15 -4 -8 9 -8 15 -2 15 6 0 14 -5 17
-11z m-445 -9 c0 -5 -5 -10 -11 -10 -5 0 -7 5 -4 10 3 6 8 10 11 10 2 0 4 -4
4 -10z m-2680 -59 c0 -10 -63 -42 -70 -35 -6 7 42 43 58 44 6 0 12 -4 12 -9z
m3188 -3 c-2 -6 -10 -14 -16 -16 -7 -2 -10 2 -6 12 7 18 28 22 22 4z m-3233
-107 c3 -5 1 -12 -5 -16 -5 -3 -10 1 -10 9 0 18 6 21 15 7z m-125 -11 c0 -5
-7 -10 -15 -10 -8 0 -15 5 -15 10 0 6 7 10 15 10 8 0 15 -4 15 -10z m2715 -10
c3 -5 1 -10 -4 -10 -6 0 -11 5 -11 10 0 6 2 10 4 10 3 0 8 -4 11 -10z m-2695
-21 c0 -5 -16 -9 -35 -9 -19 0 -35 4 -35 8 0 4 16 8 35 9 19 1 35 -3 35 -8z
m10 -103 c0 -3 -4 -8 -10 -11 -5 -3 -10 -1 -10 4 0 6 5 11 10 11 6 0 10 -2 10
-4z m171 -46 c5 0 9 -4 9 -10 0 -12 -47 -13 -54 -1 -8 12 6 22 22 16 7 -3 18
-5 23 -5z m3154 -10 c3 -5 20 -14 38 -19 25 -7 27 -9 10 -10 -22 -1 -34 -31
-13 -31 6 0 10 -4 10 -10 0 -5 -8 -10 -19 -10 -14 0 -17 -6 -13 -25 2 -14 -1
-32 -8 -40 -6 -8 -9 -19 -5 -25 3 -5 1 -10 -5 -10 -8 0 -9 -10 -5 -30 6 -26 3
-31 -20 -40 -20 -8 -31 -7 -42 2 -12 10 -17 9 -27 -2 -17 -22 -75 -50 -81 -40
-3 4 -2 16 2 25 4 12 2 16 -7 13 -7 -2 -14 -17 -16 -32 -4 -38 -9 -41 -22 -11
-7 15 -8 25 -2 25 6 0 5 9 -2 21 -11 18 -11 23 0 26 24 9 -8 33 -35 27 -23 -6
-24 -5 -11 15 14 22 28 28 28 11 0 -5 3 -10 8 -10 4 0 6 19 4 42 -4 39 -3 41
13 25 19 -20 35 -14 35 14 0 10 5 19 10 19 6 0 10 -4 10 -10 0 -13 37 -13 45
0 4 6 10 8 15 5 5 -3 11 -1 15 5 10 16 25 2 26 -23 l0 -22 9 22 c5 13 15 21
22 19 7 -1 10 -1 6 1 -16 9 -7 23 15 24 16 1 18 2 5 6 -36 9 -20 26 22 25 8
-1 3 4 -12 11 -16 6 -28 14 -28 19 0 11 18 10 25 -2z m-115 -36 c0 -8 -6 -11
-15 -8 -11 5 -13 2 -9 -10 4 -11 1 -16 -10 -16 -19 0 -22 46 -3 53 18 6 37 -3
37 -19z m-3215 -53 c3 -5 1 -12 -5 -16 -5 -3 -10 1 -10 9 0 18 6 21 15 7z
m-41 -10 c3 -5 -1 -14 -8 -20 -12 -10 -13 -8 -9 8 6 23 9 25 17 12z m81 -1 c3
-5 1 -10 -4 -10 -6 0 -11 5 -11 10 0 6 2 10 4 10 3 0 8 -4 11 -10z m3455 -19
l25 -10 -27 0 c-16 -1 -28 -5 -28 -11 0 -5 4 -10 9 -10 5 0 11 -9 14 -21 4
-16 -1 -23 -24 -33 -16 -7 -26 -15 -22 -19 3 -4 -6 -7 -20 -7 -20 0 -27 -5
-27 -19 0 -11 -4 -22 -9 -25 -11 -7 -23 22 -15 35 3 5 -2 12 -11 15 -14 6 -14
8 -1 23 8 9 15 21 15 26 1 6 4 25 7 42 6 31 8 32 48 29 22 -3 52 -9 66 -15z
m-3463 -64 c20 -11 18 -12 -22 -13 -56 0 -59 16 -5 24 3 1 15 -4 27 -11z m73
-62 c0 -15 -11 -19 -39 -15 -8 1 -18 -4 -22 -12 -7 -10 -11 -10 -21 0 -10 10
-10 15 2 22 8 5 23 7 33 4 9 -3 17 -1 17 5 0 6 7 11 15 11 8 0 15 -7 15 -15z
m-232 -38 c2 -10 -3 -17 -12 -17 -10 0 -16 9 -16 21 0 24 23 21 28 -4z m126 8
c-4 -8 -8 -15 -10 -15 -2 0 -4 7 -4 15 0 8 4 15 10 15 5 0 7 -7 4 -15z m-19
-75 c-3 -5 -14 -10 -23 -10 -15 0 -15 2 -2 10 20 13 33 13 25 0z m-56 -87 c-7
-8 -15 -10 -18 -6 -4 4 -10 11 -14 14 -4 4 4 7 18 7 21 0 23 -3 14 -15z m-99
-3 c0 -5 -4 -10 -10 -10 -5 0 -10 5 -10 10 0 6 5 10 10 10 6 0 10 -4 10 -10z
m120 -19 c0 -5 -12 -19 -27 -30 -24 -18 -25 -20 -9 -21 15 0 17 -3 9 -11 -8
-8 -17 -8 -33 1 l-23 12 34 29 c35 30 49 36 49 20z m120 -10 c0 -8 -43 -41
-53 -41 -3 0 -7 9 -10 19 -3 13 1 21 12 24 29 8 51 7 51 -2z m-76 -27 c9 -22
2 -27 -24 -19 -17 5 -19 10 -9 21 15 18 25 18 33 -2z m-744 -30 c0 -2 -9 -4
-21 -4 -11 0 -18 4 -14 10 5 8 35 3 35 -6z m530 2 c0 -3 -4 -8 -10 -11 -5 -3
-10 -1 -10 4 0 6 5 11 10 11 6 0 10 -2 10 -4z m-40 -62 c0 -2 -7 -4 -15 -4 -8
0 -15 4 -15 10 0 5 7 7 15 4 8 -4 15 -8 15 -10z m-140 -14 c14 -4 19 -8 12 -9
-7 -1 -10 -6 -7 -11 3 -6 17 -7 31 -4 13 3 24 2 24 -4 0 -5 -13 -12 -29 -14
-23 -3 -31 0 -35 15 -4 15 -10 18 -35 12 -19 -4 -31 -3 -31 3 0 20 30 25 70
12z m110 -20 c0 -5 -4 -10 -10 -10 -5 0 -10 5 -10 10 0 6 5 10 10 10 6 0 10
-4 10 -10z m-150 -20 c0 -5 -7 -10 -16 -10 -8 0 -12 5 -9 10 3 6 10 10 16 10
5 0 9 -4 9 -10z m130 -14 c0 -3 -4 -8 -10 -11 -5 -3 -10 -1 -10 4 0 6 5 11 10
11 6 0 10 -2 10 -4z m-230 -57 c0 -14 -17 -10 -23 5 -4 10 -1 13 9 9 7 -3 14
-9 14 -14z m-53 5 c-3 -3 -12 -4 -19 -1 -8 3 -5 6 6 6 11 1 17 -2 13 -5z m404
-21 c13 -16 12 -17 -3 -4 -10 7 -18 15 -18 17 0 8 8 3 21 -13z m-561 -3 c0 -5
12 -11 28 -11 18 -1 21 -3 9 -6 -24 -6 -67 5 -67 17 0 6 7 10 15 10 8 0 15 -4
15 -10z m92 -5 c0 -5 -5 -11 -11 -13 -6 -2 -11 4 -11 13 0 9 5 15 11 13 6 -2
11 -8 11 -13z m418 -5 c-24 -15 -37 -11 -16 5 11 8 22 12 25 9 3 -3 -1 -9 -9
-14z m261 -28 c-7 -2 -18 1 -23 6 -8 8 -4 9 13 5 13 -4 18 -8 10 -11z m-61 -2
c-8 -5 -22 -9 -30 -9 -10 0 -8 3 5 9 27 12 43 12 25 0z m-353 -6 c-3 -3 -12
-4 -19 -1 -8 3 -5 6 6 6 11 1 17 -2 13 -5z m390 -10 c-3 -3 -12 -4 -19 -1 -8
3 -5 6 6 6 11 1 17 -2 13 -5z"/>
<path d="M4370 1821 c0 -5 9 -11 21 -14 16 -4 18 -3 8 9 -13 16 -29 19 -29 5z"/>
<path d="M4258 1780 c-24 -27 -35 -74 -17 -68 8 3 14 15 13 27 -1 22 10 28 21
11 12 -20 26 -10 23 17 -4 34 -19 39 -40 13z"/>
<path d="M4460 1736 c29 -27 35 -26 25 3 -4 13 -15 21 -28 21 -21 0 -21 0 3
-24z"/>
<path d="M4254 1659 c-3 -5 9 -9 25 -9 17 0 31 4 31 9 0 5 -11 9 -25 9 -14 0
-28 -4 -31 -9z"/>
<path d="M4318 1637 c-34 -13 -39 -42 -6 -31 28 9 67 44 47 43 -8 -1 -26 -6
-41 -12z"/>
<path d="M4156 1604 c-10 -25 -7 -34 9 -28 17 7 20 30 6 38 -5 3 -12 -1 -15
-10z"/>
<path d="M4285 1579 c-4 -6 -5 -13 -2 -16 7 -7 27 6 27 18 0 12 -17 12 -25 -2z"/>
<path d="M4275 1530 c-3 -5 1 -10 10 -10 9 0 13 5 10 10 -3 6 -8 10 -10 10 -2
0 -7 -4 -10 -10z"/>
<path d="M4157 1513 c-4 -3 -7 -11 -7 -17 0 -6 5 -5 12 2 6 6 9 14 7 17 -3 3
-9 2 -12 -2z"/>
<path d="M4250 1380 c0 -5 5 -10 11 -10 5 0 7 5 4 10 -3 6 -8 10 -11 10 -2 0
-4 -4 -4 -10z"/>
<path d="M4465 1350 c-3 -5 -1 -10 4 -10 6 0 11 5 11 10 0 6 -2 10 -4 10 -3 0
-8 -4 -11 -10z"/>
<path d="M4270 1330 c0 -5 7 -10 15 -10 8 0 15 5 15 10 0 6 -7 10 -15 10 -8 0
-15 -4 -15 -10z"/>
<path d="M4253 1293 c9 -2 23 -2 30 0 6 3 -1 5 -18 5 -16 0 -22 -2 -12 -5z"/>
<path d="M4316 647 c3 -10 9 -15 12 -12 3 3 0 11 -7 18 -10 9 -11 8 -5 -6z"/>
<path d="M4045 5133 c-16 -8 -47 -34 -68 -56 -36 -38 -38 -42 -21 -54 10 -7
25 -11 33 -9 9 3 41 8 72 11 l57 7 -4 51 c-3 43 -15 67 -34 66 -3 0 -18 -7
-35 -16z"/>
<path d="M1173 5123 c-13 -2 -23 -8 -23 -13 0 -12 64 -4 68 9 4 11 -4 12 -45
4z"/>
<path d="M930 5090 c0 -5 5 -10 10 -10 6 0 10 5 10 10 0 6 -4 10 -10 10 -5 0
-10 -4 -10 -10z"/>
<path d="M2452 5058 c-19 -19 -15 -34 19 -70 26 -28 30 -29 24 -10 -5 18 -2
22 14 22 28 0 26 16 -5 45 -31 28 -35 30 -52 13z"/>
<path d="M1026 5045 c-3 -9 0 -15 9 -15 16 0 20 16 6 24 -5 3 -11 -1 -15 -9z"/>
<path d="M932 5034 c14 -14 21 -15 30 -6 8 8 9 12 1 12 -6 0 -20 3 -30 6 -17
7 -17 6 -1 -12z"/>
<path d="M985 5040 c3 -5 11 -10 16 -10 6 0 7 5 4 10 -3 6 -11 10 -16 10 -6 0
-7 -4 -4 -10z"/>
<path d="M1321 4968 c0 -7 4 -22 8 -32 5 -14 10 -16 15 -7 4 7 19 17 33 22 32
12 26 19 -21 25 -25 3 -36 0 -35 -8z"/>
<path d="M980 4949 c0 -5 5 -7 10 -4 6 3 10 8 10 11 0 2 -4 4 -10 4 -5 0 -10
-5 -10 -11z"/>
<path d="M1018 4953 c7 -3 16 -2 19 1 4 3 -2 6 -13 5 -11 0 -14 -3 -6 -6z"/>
<path d="M1160 4930 c-12 -8 -10 -10 8 -10 13 0 20 4 17 10 -7 12 -6 12 -25 0z"/>
<path d="M1368 4923 c7 -3 16 -2 19 1 4 3 -2 6 -13 5 -11 0 -14 -3 -6 -6z"/>
<path d="M939 4901 c-11 -8 -36 -14 -55 -13 -29 2 -34 -1 -34 -19 0 -16 4 -19
18 -13 9 4 36 9 60 12 23 2 42 9 42 14 0 7 24 9 65 5 47 -3 65 -1 62 7 -6 18
-132 24 -158 7z"/>
<path d="M846 4803 c-6 -14 -5 -15 5 -6 7 7 10 15 7 18 -3 3 -9 -2 -12 -12z"/>
<path d="M900 4785 c7 -8 19 -15 27 -15 13 0 13 3 3 15 -7 8 -19 15 -27 15
-13 0 -13 -3 -3 -15z"/>
<path d="M980 4679 c0 -6 -9 -8 -22 -4 -21 6 -22 5 -4 -6 15 -9 24 -9 38 0 10
6 23 9 27 6 5 -3 20 -1 33 4 19 8 15 10 -24 10 -28 1 -48 -4 -48 -10z"/>
<path d="M1040 4660 c0 -5 7 -10 15 -10 8 0 15 5 15 10 0 6 -7 10 -15 10 -8 0
-15 -4 -15 -10z"/>
<path d="M1119 4623 c0 -11 -3 -13 -6 -5 -2 6 -21 12 -41 11 -36 0 -36 -1 -12
-11 14 -6 29 -10 34 -9 5 1 13 -4 17 -11 7 -11 9 -10 9 1 0 8 6 11 16 7 19 -7
47 12 38 25 -10 17 -54 10 -55 -8z"/>
<path d="M1032 4589 c2 -7 10 -15 17 -17 8 -3 12 1 9 9 -2 7 -10 15 -17 17 -8
3 -12 -1 -9 -9z"/>
<path d="M1312 4581 c-13 -3 -23 -10 -22 -16 1 -11 50 -8 63 5 12 11 -14 18
-41 11z"/>
<path d="M1255 4558 c12 -39 26 -45 23 -10 -1 19 -8 32 -16 32 -9 0 -11 -7 -7
-22z"/>
<path d="M1185 4560 c3 -5 11 -10 16 -10 6 0 7 5 4 10 -3 6 -11 10 -16 10 -6
0 -7 -4 -4 -10z"/>
<path d="M931 4550 c0 -16 22 -50 33 -50 12 0 6 18 -14 41 -13 17 -19 19 -19
9z"/>
<path d="M1040 4545 c0 -10 7 -15 18 -13 21 4 19 22 -2 26 -10 2 -16 -3 -16
-13z"/>
<path d="M1115 4550 c-4 -6 -3 -10 2 -9 4 1 16 -1 26 -6 20 -9 32 -1 22 14 -8
14 -42 14 -50 1z"/>
<path d="M1132 4468 c-15 -15 -16 -31 -1 -22 6 3 15 0 20 -7 4 -7 11 -10 14
-7 4 4 1 16 -7 27 -11 16 -17 18 -26 9z"/>
<path d="M1112 4401 c-10 -6 -10 -10 3 -21 8 -7 19 -10 22 -6 4 4 1 11 -6 16
-11 6 -10 9 5 13 12 3 13 5 4 6 -8 0 -21 -3 -28 -8z"/>
<path d="M2790 4323 c-43 -13 -45 -14 -31 -22 10 -6 6 -12 -15 -23 -44 -22
-74 -42 -74 -49 0 -5 89 -99 94 -99 1 0 28 -5 61 -10 79 -13 112 -1 121 46 9
47 -1 76 -36 114 -16 18 -30 36 -30 40 0 8 -65 10 -90 3z"/>
<path d="M3521 4239 c-21 -22 -20 -69 2 -97 14 -17 1 -28 -17 -13 -20 17 -30
-3 -14 -29 7 -11 22 -20 33 -19 11 1 37 -1 58 -6 44 -9 81 11 100 53 6 15 16
30 22 34 15 11 -26 60 -66 80 -47 24 -94 23 -118 -3z"/>
<path d="M1305 4210 c3 -5 10 -10 16 -10 5 0 9 5 9 10 0 6 -7 10 -16 10 -8 0
-12 -4 -9 -10z"/>
<path d="M1535 4170 c-3 -5 -1 -10 4 -10 6 0 11 5 11 10 0 6 -2 10 -4 10 -3 0
-8 -4 -11 -10z"/>
<path d="M1515 4090 c-18 -8 -17 -9 8 -9 16 -1 26 3 22 9 -3 6 -7 10 -8 9 -1
0 -11 -4 -22 -9z"/>
<path d="M1546 4041 c-3 -5 1 -14 9 -21 12 -10 15 -10 15 3 0 19 -16 31 -24
18z"/>
<path d="M3048 3724 c-57 -17 -72 -40 -63 -97 10 -64 15 -77 30 -77 10 0 12
-9 8 -33 -4 -29 -1 -34 29 -49 32 -16 32 -17 8 -17 -15 -1 -32 5 -40 12 -12
10 -12 9 -2 -4 10 -13 9 -19 -4 -30 -9 -7 -20 -24 -25 -37 -9 -23 -37 -26 -31
-3 1 7 -15 3 -39 -9 -44 -23 -49 -47 -14 -65 56 -29 60 -34 60 -71 0 -43 21
-57 30 -21 7 24 7 25 123 24 117 -1 230 8 241 18 3 4 -1 10 -9 15 -11 7 -8 10
13 15 29 8 37 25 12 25 -28 0 -65 31 -65 56 0 12 -10 30 -21 38 l-22 15 22 27
c11 15 21 31 21 37 0 6 11 22 24 36 17 18 27 43 32 79 7 52 6 53 -34 91 l-40
38 -98 1 c-59 0 -118 -5 -146 -14z m102 -438 c0 -9 -13 -7 -29 3 -7 5 -10 14
-7 20 5 8 11 7 22 -3 8 -8 14 -17 14 -20z m80 4 c0 -5 -10 -10 -22 -10 -19 0
-20 2 -8 10 19 13 30 13 30 0z m50 0 c0 -5 -9 -10 -20 -10 -11 0 -20 5 -20 10
0 6 9 10 20 10 11 0 20 -4 20 -10z m40 1 c0 -17 -18 -21 -24 -6 -3 9 0 15 9
15 8 0 15 -4 15 -9z"/>
<path d="M1375 3690 c3 -5 10 -10 16 -10 5 0 9 5 9 10 0 6 -7 10 -16 10 -8 0
-12 -4 -9 -10z"/>
<path d="M1335 3670 c3 -5 11 -10 16 -10 6 0 7 5 4 10 -3 6 -11 10 -16 10 -6
0 -7 -4 -4 -10z"/>
<path d="M887 3626 c-6 -14 0 -26 14 -26 3 0 9 9 12 20 6 23 -18 28 -26 6z"/>
<path d="M1310 3633 c0 -3 10 -14 21 -24 40 -34 22 -150 -18 -117 -11 9 -15 7
-19 -9 -3 -11 -18 -26 -32 -33 -17 -8 -22 -14 -14 -17 7 -3 19 0 27 7 8 6 19
9 25 5 13 -8 110 23 110 36 0 5 7 9 15 9 18 0 20 16 4 26 -8 4 -8 9 -1 13 13
8 -53 81 -74 81 -8 0 -14 4 -14 9 0 5 -7 11 -15 15 -8 3 -15 3 -15 -1z"/>
<path d="M1420 3633 c0 -5 26 -22 58 -36 32 -15 72 -41 88 -58 l29 -30 -25
-19 c-14 -11 -33 -20 -43 -20 -9 0 -25 -4 -35 -9 -9 -5 -30 -13 -47 -18 -43
-12 -37 -28 13 -30 29 -1 45 3 49 13 3 8 9 12 13 9 13 -8 102 34 95 45 -3 5
-2 10 4 10 5 0 11 -5 13 -11 5 -14 61 18 78 44 14 23 11 27 -32 34 -18 3 -38
9 -44 14 -6 5 -13 6 -17 3 -3 -3 -18 1 -34 9 -15 9 -51 22 -79 31 -27 8 -58
18 -67 22 -9 3 -17 2 -17 -3z"/>
<path d="M1240 3621 c0 -6 5 -13 10 -16 6 -3 10 1 10 9 0 9 -4 16 -10 16 -5 0
-10 -4 -10 -9z"/>
<path d="M2537 3573 c-13 -13 -7 -21 13 -16 11 3 20 9 20 14 0 10 -24 12 -33
2z"/>
<path d="M1250 3559 c0 -5 5 -7 10 -4 6 3 10 8 10 11 0 2 -4 4 -10 4 -5 0 -10
-5 -10 -11z"/>
<path d="M2640 3550 c-14 -11 -20 -20 -15 -19 13 0 50 28 44 33 -2 3 -15 -4
-29 -14z"/>
<path d="M2650 3520 c-22 -14 -23 -59 -2 -53 31 8 53 30 46 47 -7 18 -22 20
-44 6z"/>
<path d="M1230 3511 c0 -5 5 -13 10 -16 6 -3 10 -2 10 4 0 5 -4 13 -10 16 -5
3 -10 2 -10 -4z"/>
<path d="M1176 3484 c-31 -30 -18 -43 20 -21 18 10 20 14 9 24 -11 10 -17 10
-29 -3z"/>
<path d="M1110 3451 c0 -17 18 -21 24 -6 3 9 0 15 -9 15 -8 0 -15 -4 -15 -9z"/>
<path d="M1370 3420 c0 -5 5 -10 10 -10 6 0 10 5 10 10 0 6 -4 10 -10 10 -5 0
-10 -4 -10 -10z"/>
<path d="M1165 3410 c-8 -13 5 -13 25 0 13 8 13 10 -2 10 -9 0 -20 -4 -23 -10z"/>
<path d="M1846 3373 c-3 -4 -14 -8 -24 -9 -9 -1 -53 -7 -97 -14 -44 -6 -91
-12 -105 -14 -156 -18 -232 -31 -241 -42 -13 -16 94 -11 226 12 126 22 253 28
270 14 11 -9 19 -7 36 9 l22 21 -36 15 c-42 17 -41 17 -51 8z"/>
<path d="M1290 3290 c-11 -7 -3 -10 28 -10 23 0 42 3 42 8 0 11 -53 12 -70 2z"/>
<path d="M1646 3132 c-3 -6 -1 -14 5 -17 15 -10 25 3 12 16 -7 7 -13 7 -17 1z"/>
<path d="M1565 3120 c-3 -5 1 -10 9 -10 9 0 16 5 16 10 0 6 -4 10 -9 10 -6 0
-13 -4 -16 -10z"/>
<path d="M2892 3088 c-7 -7 -12 -18 -12 -25 0 -18 29 -16 37 3 8 21 -10 37
-25 22z"/>
<path d="M1420 3060 c0 -5 5 -10 11 -10 5 0 7 5 4 10 -3 6 -8 10 -11 10 -2 0
-4 -4 -4 -10z"/>
<path d="M2873 3021 c-6 -23 -29 -28 -36 -8 -2 6 -8 9 -12 5 -4 -4 -2 -15 5
-23 11 -13 10 -18 -6 -29 -10 -8 -21 -13 -25 -11 -3 2 -13 -10 -23 -26 -11
-19 -29 -32 -47 -36 -32 -6 -59 -45 -59 -83 0 -13 -4 -19 -11 -14 -8 5 -10 -1
-7 -19 3 -17 0 -28 -9 -32 -18 -6 -11 -31 7 -27 10 2 11 0 2 -11 -13 -15 -16
-57 -7 -102 11 -56 8 -74 -18 -93 -9 -7 -15 -17 -12 -22 3 -5 1 -11 -5 -15 -5
-3 -8 -16 -5 -28 3 -12 0 -29 -7 -38 -16 -21 -58 -35 -58 -20 0 18 -26 13 -45
-9 -17 -19 -17 -31 1 -89 5 -16 4 -22 -4 -17 -15 9 -25 -45 -13 -76 12 -32 57
-68 85 -68 29 -1 71 -25 71 -42 0 -7 9 -14 20 -15 l20 -3 -20 9 c-11 5 -15 10
-8 10 21 2 43 -11 43 -25 0 -7 9 -18 21 -24 12 -7 18 -18 15 -26 -3 -8 -2 -13
3 -10 4 3 22 1 39 -3 44 -13 59 7 45 60 -8 30 -7 41 3 50 20 16 18 53 -1 45
-10 -4 -15 1 -15 15 0 15 -5 19 -19 14 -17 -5 -18 0 -16 50 3 51 24 93 39 78
3 -4 6 -1 6 5 0 7 3 11 8 10 4 -1 17 3 30 10 16 9 21 19 17 32 -3 11 1 26 12
37 33 33 73 91 73 107 0 9 3 16 8 16 13 0 102 86 102 98 0 7 5 12 10 12 6 0
10 -4 10 -10 0 -5 5 -10 10 -10 6 0 10 4 10 9 0 27 88 95 125 96 20 1 57 46
47 58 -5 7 -13 30 -17 52 l-7 39 -17 -23 c-10 -13 -23 -21 -30 -17 -6 4 -11 1
-11 -6 0 -8 -18 -19 -39 -24 l-39 -11 5 34 c11 67 -35 108 -82 71 -21 -16 -25
-17 -25 -4 0 9 -4 16 -10 16 -5 0 -10 -8 -10 -18 0 -10 -7 -27 -15 -38 -8 -10
-15 -26 -15 -35 0 -21 -29 -33 -35 -16 -3 6 -6 36 -8 64 -2 29 -6 56 -10 59
-4 4 -7 18 -7 31 0 17 6 23 21 23 11 0 17 5 14 10 -3 6 -15 10 -25 10 -13 0
-17 5 -14 14 3 8 0 17 -6 21 -7 4 -14 -2 -17 -14z m-176 -297 c-3 -3 -12 -4
-19 -1 -8 3 -5 6 6 6 11 1 17 -2 13 -5z m-57 -314 c0 -5 -5 -10 -11 -10 -5 0
-7 5 -4 10 3 6 8 10 11 10 2 0 4 -4 4 -10z"/>
<path d="M2920 3030 c0 -5 5 -10 10 -10 6 0 10 5 10 10 0 6 -4 10 -10 10 -5 0
-10 -4 -10 -10z"/>
<path d="M4440 3000 c0 -5 5 -10 10 -10 6 0 10 5 10 10 0 6 -4 10 -10 10 -5 0
-10 -4 -10 -10z"/>
<path d="M4480 2970 c0 -5 5 -10 11 -10 5 0 7 5 4 10 -3 6 -8 10 -11 10 -2 0
-4 -4 -4 -10z"/>
<path d="M1375 2770 c3 -5 10 -10 16 -10 5 0 9 5 9 10 0 6 -7 10 -16 10 -8 0
-12 -4 -9 -10z"/>
<path d="M1430 2770 c0 -5 5 -10 10 -10 6 0 10 5 10 10 0 6 -4 10 -10 10 -5 0
-10 -4 -10 -10z"/>
<path d="M1348 2693 c-29 -7 -21 -20 12 -20 17 0 29 5 27 11 -4 12 -16 15 -39
9z"/>
<path d="M1191 2673 c-17 -3 -20 -7 -12 -13 16 -9 51 -1 51 11 0 5 -3 8 -7 8
-5 -1 -19 -4 -32 -6z"/>
<path d="M1265 2670 c3 -5 12 -7 20 -3 21 7 19 13 -6 13 -11 0 -18 -4 -14 -10z"/>
<path d="M1058 2663 c-26 -6 -22 -23 5 -22 25 2 85 16 77 18 -14 6 -67 8 -82
4z"/>
<path d="M1100 2600 c-24 -8 -23 -8 8 -9 17 -1 32 4 32 9 0 11 -5 11 -40 0z"/>
<path d="M1168 2603 c6 -2 18 -2 25 0 6 3 1 5 -13 5 -14 0 -19 -2 -12 -5z"/>
<path d="M978 2583 c7 -3 16 -2 19 1 4 3 -2 6 -13 5 -11 0 -14 -3 -6 -6z"/>
<path d="M995 2560 l-40 -7 48 -2 c30 0 46 3 42 9 -3 6 -7 9 -8 9 -1 -1 -20
-5 -42 -9z"/>
<path d="M822 2501 c-13 -3 -24 -10 -25 -16 -3 -14 34 -17 53 -5 21 13 1 28
-28 21z"/>
<path d="M538 2453 c7 -3 16 -2 19 1 4 3 -2 6 -13 5 -11 0 -14 -3 -6 -6z"/>
<path d="M1115 2450 c-3 -6 1 -7 9 -4 18 7 21 14 7 14 -6 0 -13 -4 -16 -10z"/>
<path d="M1168 2453 c7 -3 16 -2 19 1 4 3 -2 6 -13 5 -11 0 -14 -3 -6 -6z"/>
<path d="M1033 2443 c15 -2 37 -2 50 0 12 2 0 4 -28 4 -27 0 -38 -2 -22 -4z"/>
<path d="M2576 2441 c-4 -5 -2 -12 3 -15 5 -4 12 -2 15 3 4 5 2 12 -3 15 -5 4
-12 2 -15 -3z"/>
<path d="M913 2433 c9 -2 23 -2 30 0 6 3 -1 5 -18 5 -16 0 -22 -2 -12 -5z"/>
<path d="M2907 2394 c-15 -15 -27 -33 -27 -40 0 -24 28 -15 51 17 29 42 12 59
-24 23z"/>
<path d="M348 2313 c7 -3 16 -2 19 1 4 3 -2 6 -13 5 -11 0 -14 -3 -6 -6z"/>
<path d="M4320 2109 c0 -5 5 -7 10 -4 6 3 10 8 10 11 0 2 -4 4 -10 4 -5 0 -10
-5 -10 -11z"/>
<path d="M2947 2035 c-4 -8 -2 -17 4 -20 5 -4 7 -11 4 -16 -3 -5 1 -6 9 -3 17
7 19 14 10 38 -8 20 -20 21 -27 1z"/>
<path d="M1035 1960 c3 -5 8 -10 11 -10 2 0 4 5 4 10 0 6 -5 10 -11 10 -5 0
-7 -4 -4 -10z"/>
<path d="M3092 1940 c0 -14 2 -19 5 -12 2 6 2 18 0 25 -3 6 -5 1 -5 -13z"/>
<path d="M1190 1940 c0 -5 7 -7 15 -4 8 4 15 8 15 10 0 2 -7 4 -15 4 -8 0 -15
-4 -15 -10z"/>
<path d="M4030 1930 c0 -5 5 -10 11 -10 5 0 7 5 4 10 -3 6 -8 10 -11 10 -2 0
-4 -4 -4 -10z"/>
<path d="M3035 1909 c-4 -6 -5 -12 -2 -15 2 -3 7 2 10 11 7 17 1 20 -8 4z"/>
<path d="M220 1846 c0 -9 30 -14 35 -6 4 6 -3 10 -14 10 -12 0 -21 -2 -21 -4z"/>
<path d="M1161 1788 c-11 -30 -4 -36 14 -12 17 23 19 34 5 34 -6 0 -14 -10
-19 -22z"/>
<path d="M3135 1760 c-8 -13 4 -32 16 -25 12 8 12 35 0 35 -6 0 -13 -4 -16
-10z"/>
<path d="M3886 1745 c-9 -24 -8 -25 13 -25 10 0 24 7 31 15 8 9 8 15 2 15 -6
0 -17 3 -25 6 -8 3 -17 -2 -21 -11z"/>
<path d="M3820 1709 c0 -5 5 -7 10 -4 6 3 10 8 10 11 0 2 -4 4 -10 4 -5 0 -10
-5 -10 -11z"/>
<path d="M3805 1650 c3 -5 10 -10 16 -10 5 0 9 5 9 10 0 6 -7 10 -16 10 -8 0
-12 -4 -9 -10z"/>
<path d="M3876 1617 c3 -10 9 -15 12 -12 3 3 0 11 -7 18 -10 9 -11 8 -5 -6z"/>
<path d="M3825 1610 c-3 -5 1 -10 10 -10 9 0 13 5 10 10 -3 6 -8 10 -10 10 -2
0 -7 -4 -10 -10z"/>
<path d="M1023 1593 c9 -2 25 -2 35 0 9 3 1 5 -18 5 -19 0 -27 -2 -17 -5z"/>
<path d="M3841 1574 c0 -11 3 -14 6 -6 3 7 2 16 -1 19 -3 4 -6 -2 -5 -13z"/>
<path d="M965 1540 c-3 -5 -1 -10 4 -10 6 0 11 5 11 10 0 6 -2 10 -4 10 -3 0
-8 -4 -11 -10z"/>
<path d="M920 1526 c0 -2 7 -7 16 -10 8 -3 12 -2 9 4 -6 10 -25 14 -25 6z"/>
<path d="M720 1500 c0 -5 5 -10 10 -10 6 0 10 5 10 10 0 6 -4 10 -10 10 -5 0
-10 -4 -10 -10z"/>
<path d="M805 1500 c-8 -13 5 -13 25 0 13 8 13 10 -2 10 -9 0 -20 -4 -23 -10z"/>
<path d="M740 1440 c0 -5 7 -7 15 -4 8 4 15 8 15 10 0 2 -7 4 -15 4 -8 0 -15
-4 -15 -10z"/>
<path d="M3090 1414 c0 -8 5 -12 10 -9 6 3 10 10 10 16 0 5 -4 9 -10 9 -5 0
-10 -7 -10 -16z"/>
<path d="M3715 1390 c3 -5 11 -10 16 -10 6 0 7 5 4 10 -3 6 -11 10 -16 10 -6
0 -7 -4 -4 -10z"/>
<path d="M3676 1361 c-4 -5 -2 -12 3 -15 5 -4 12 -2 15 3 4 5 2 12 -3 15 -5 4
-12 2 -15 -3z"/>
<path d="M850 1299 c0 -6 -6 -9 -14 -6 -15 6 -43 -18 -29 -26 12 -6 54 -2 82
7 16 6 26 4 32 -5 5 -8 9 -9 9 -3 0 18 -28 37 -45 30 -9 -3 -13 -2 -10 4 3 6
-1 10 -9 10 -9 0 -16 -5 -16 -11z"/>
<path d="M736 1284 c-3 -9 -4 -20 0 -25 3 -5 0 -9 -5 -9 -19 0 -12 -17 8 -23
14 -3 18 -1 14 10 -3 8 3 21 13 29 17 12 17 13 1 8 -13 -5 -16 -2 -11 10 3 9
2 16 -4 16 -5 0 -13 -7 -16 -16z"/>
<path d="M400 1260 c0 -5 7 -10 16 -10 8 0 12 5 9 10 -3 6 -10 10 -16 10 -5 0
-9 -4 -9 -10z"/>
<path d="M570 1259 c0 -5 5 -7 10 -4 6 3 10 8 10 11 0 2 -4 4 -10 4 -5 0 -10
-5 -10 -11z"/>
<path d="M648 1263 c7 -3 16 -2 19 1 4 3 -2 6 -13 5 -11 0 -14 -3 -6 -6z"/>
<path d="M670 1240 c-9 -6 -10 -10 -3 -10 6 0 15 5 18 10 8 12 4 12 -15 0z"/>
<path d="M180 1180 c0 -5 7 -10 16 -10 8 0 12 5 9 10 -3 6 -10 10 -16 10 -5 0
-9 -4 -9 -10z"/>
<path d="M701 1171 c-12 -12 -23 -15 -28 -10 -11 11 -57 -3 -68 -21 -6 -9 1
-10 25 -5 23 5 35 3 42 -6 7 -11 11 -11 15 -1 2 6 14 12 24 12 29 0 59 18 59
35 0 22 -46 19 -69 -4z"/>
<path d="M310 1107 c0 -13 5 -17 16 -13 9 3 22 6 30 6 27 0 14 18 -16 22 -25
4 -30 1 -30 -15z"/>
<path d="M895 1100 c-3 -5 -1 -10 4 -10 6 0 11 5 11 10 0 6 -2 10 -4 10 -3 0
-8 -4 -11 -10z"/>
<path d="M550 980 c0 -5 5 -10 10 -10 6 0 10 5 10 10 0 6 -4 10 -10 10 -5 0
-10 -4 -10 -10z"/>
<path d="M735 980 c-3 -5 -16 -10 -28 -10 -14 0 -18 -3 -11 -10 13 -13 40 -4
48 16 6 16 0 19 -9 4z"/>
<path d="M480 970 c0 -5 5 -10 11 -10 5 0 7 5 4 10 -3 6 -8 10 -11 10 -2 0 -4
-4 -4 -10z"/>
<path d="M365 949 c-10 -15 1 -23 20 -15 9 3 13 10 10 16 -8 13 -22 13 -30 -1z"/>
<path d="M270 930 c-13 -8 -12 -10 3 -10 9 0 17 5 17 10 0 12 -1 12 -20 0z"/>
<path d="M580 880 c0 -5 5 -10 11 -10 5 0 7 5 4 10 -3 6 -8 10 -11 10 -2 0 -4
-4 -4 -10z"/>
<path d="M640 876 c0 -17 -41 -29 -67 -19 -10 3 -15 2 -10 -2 4 -5 23 -10 42
-11 26 -2 35 1 40 15 6 18 7 18 43 1 34 -17 38 -17 55 -2 17 15 17 16 -4 24
-15 6 -25 4 -30 -4 -7 -10 -11 -10 -21 0 -16 16 -48 15 -48 -2z"/>
<path d="M255 851 c-3 -5 9 -17 27 -25 25 -13 33 -14 40 -4 11 18 10 26 -4 34
-8 5 -9 2 -5 -9 4 -11 1 -17 -7 -17 -8 0 -16 7 -20 15 -6 17 -22 20 -31 6z"/>
<path d="M364 852 c-14 -9 -27 -45 -14 -37 5 3 18 1 27 -4 10 -6 12 -11 6 -11
-7 0 -13 -5 -13 -11 0 -8 5 -8 15 1 11 9 12 16 5 25 -6 7 -8 20 -4 29 6 17 -4
21 -22 8z"/>
<path d="M405 830 c-3 -5 -2 -10 4 -10 5 0 13 5 16 10 3 6 2 10 -4 10 -5 0
-13 -4 -16 -10z"/>
<path d="M525 830 c3 -5 10 -10 16 -10 5 0 9 5 9 10 0 6 -7 10 -16 10 -8 0
-12 -4 -9 -10z"/>
<path d="M15 820 c3 -5 8 -10 11 -10 2 0 4 5 4 10 0 6 -5 10 -11 10 -5 0 -7
-4 -4 -10z"/>
<path d="M141 813 c12 -15 12 -16 -6 -9 -16 6 -18 5 -7 -5 9 -10 15 -10 23 -2
12 12 4 33 -13 33 -6 0 -5 -7 3 -17z"/>
<path d="M170 820 c0 -5 7 -10 15 -10 8 0 15 5 15 10 0 6 -7 10 -15 10 -8 0
-15 -4 -15 -10z"/>
<path d="M480 810 c0 -5 10 -10 23 -10 18 0 19 2 7 10 -19 13 -30 13 -30 0z"/>
<path d="M0 790 c0 -5 7 -7 15 -4 19 8 19 14 0 14 -8 0 -15 -4 -15 -10z"/>
<path d="M50 780 c0 -5 5 -10 11 -10 5 0 7 5 4 10 -3 6 -8 10 -11 10 -2 0 -4
-4 -4 -10z"/>
<path d="M720 760 c0 -5 5 -10 11 -10 5 0 7 5 4 10 -3 6 -8 10 -11 10 -2 0 -4
-4 -4 -10z"/>
<path d="M540 720 c-23 -7 -23 -8 -3 -9 12 -1 25 4 28 9 3 6 5 10 3 9 -2 -1
-14 -5 -28 -9z"/>
<path d="M695 722 c-10 -11 -5 -30 11 -36 8 -3 13 -2 10 3 -4 5 4 7 16 3 17
-4 20 -2 15 11 -4 10 0 17 11 20 9 3 0 4 -20 4 -21 0 -40 -3 -43 -5z"/>
<path d="M630 700 c0 -5 5 -10 11 -10 5 0 7 5 4 10 -3 6 -8 10 -11 10 -2 0 -4
-4 -4 -10z"/>
<path d="M448 693 c7 -3 16 -2 19 1 4 3 -2 6 -13 5 -11 0 -14 -3 -6 -6z"/>
<path d="M640 658 c0 -13 19 -19 45 -12 37 9 31 23 -10 21 -19 -1 -35 -5 -35
-9z"/>
<path d="M586 651 c-22 -3 -41 -12 -44 -18 -5 -17 57 -6 78 13 8 8 12 13 10
13 -3 -1 -23 -5 -44 -8z"/>
<path d="M505 641 c-6 -11 9 -23 19 -14 9 9 7 23 -3 23 -6 0 -12 -4 -16 -9z"/>
<path d="M443 628 c-17 -6 -34 -17 -37 -25 -4 -11 1 -10 24 4 23 13 32 15 42
5 7 -7 17 -12 23 -12 5 0 2 5 -8 11 -9 6 -15 14 -12 20 4 5 5 9 3 8 -2 -1 -17
-6 -35 -11z"/>
<path d="M307 608 c-7 -4 5 -8 28 -8 22 0 47 5 55 10 18 13 -63 11 -83 -2z"/>
<path d="M740 600 c-8 -5 -12 -11 -9 -14 2 -3 11 -1 19 4 8 5 12 11 9 14 -2 3
-11 1 -19 -4z"/>
<path d="M640 579 c0 -20 -4 -21 -40 -15 -28 4 -39 3 -38 -6 2 -6 -12 -16 -29
-21 -37 -11 -44 -27 -13 -27 11 0 20 -4 20 -10 0 -5 4 -10 10 -10 5 0 7 7 4
15 -4 8 -1 15 5 15 6 0 11 7 11 15 0 8 9 15 20 15 13 0 18 -5 14 -15 -7 -16 4
-19 23 -7 13 8 30 72 19 72 -3 0 -6 -10 -6 -21z"/>
<path d="M615 580 c-3 -5 -1 -10 4 -10 6 0 11 5 11 10 0 6 -2 10 -4 10 -3 0
-8 -4 -11 -10z"/>
<path d="M446 543 c-4 -5 -16 -8 -27 -8 -10 0 -19 -4 -19 -10 -1 -14 53 -16
62 -2 10 16 10 27 0 27 -5 0 -12 -3 -16 -7z"/>
<path d="M140 500 c-13 -8 -12 -10 3 -10 9 0 17 5 17 10 0 12 -1 12 -20 0z"/>
<path d="M260 493 c63 -24 63 -23 50 -38 -13 -16 -3 -20 16 -7 17 11 25 42 11
43 -46 5 -90 6 -77 2z"/>
<path d="M210 485 c0 -14 29 -35 35 -26 3 6 -4 15 -15 21 -11 6 -20 8 -20 5z"/>
<path d="M425 480 c3 -5 14 -10 23 -10 15 0 15 2 2 10 -20 13 -33 13 -25 0z"/>
<path d="M260 449 c0 -5 5 -7 10 -4 6 3 10 8 10 11 0 2 -4 4 -10 4 -5 0 -10
-5 -10 -11z"/>
<path d="M11 431 c-7 -5 -12 -14 -9 -21 2 -8 11 -5 28 9 17 14 20 20 10 21 -8
0 -21 -4 -29 -9z"/>
<path d="M210 429 c0 -5 5 -7 10 -4 6 3 10 8 10 11 0 2 -4 4 -10 4 -5 0 -10
-5 -10 -11z"/>
<path d="M70 422 c0 -13 23 -32 38 -32 7 0 12 5 10 12 -5 13 -48 31 -48 20z"/>
<path d="M717 354 c-4 -4 -7 -14 -7 -23 0 -11 3 -12 11 -4 6 6 10 16 7 23 -2
6 -7 8 -11 4z"/>
<path d="M418 333 c6 -2 18 -2 25 0 6 3 1 5 -13 5 -14 0 -19 -2 -12 -5z"/>
<path d="M677 329 c7 -7 15 -10 18 -7 3 3 -2 9 -12 12 -14 6 -15 5 -6 -5z"/>
<path d="M488 313 c7 -3 16 -2 19 1 4 3 -2 6 -13 5 -11 0 -14 -3 -6 -6z"/>
<path d="M480 290 c0 -5 7 -10 15 -10 8 0 15 5 15 10 0 6 -7 10 -15 10 -8 0
-15 -4 -15 -10z"/>
<path d="M7 273 c-12 -12 -7 -22 8 -17 8 4 15 10 15 15 0 11 -14 12 -23 2z"/>
<path d="M53 263 c9 -11 14 -23 10 -26 -3 -4 -1 -7 6 -7 21 0 8 44 -14 49 -19
3 -19 3 -2 -16z"/>
<path d="M250 210 c0 -5 5 -10 10 -10 6 0 10 5 10 10 0 6 -4 10 -10 10 -5 0
-10 -4 -10 -10z"/>
<path d="M270 180 c0 -5 5 -10 10 -10 6 0 10 5 10 10 0 6 -4 10 -10 10 -5 0
-10 -4 -10 -10z"/>
<path d="M65 150 c-3 -6 1 -7 9 -4 18 7 21 14 7 14 -6 0 -13 -4 -16 -10z"/>
<path d="M730 27 c0 -9 -6 -18 -12 -20 -7 -3 -1 -6 14 -6 19 -1 26 3 24 16 -3
21 -26 30 -26 10z"/>
</g>
</svg>
